<?xml version="1.0" encoding="UTF-8"?>
<!DOCTYPE svg PUBLIC "-//W3C//DTD SVG 1.1//EN" "http://www.w3.org/Graphics/SVG/1.1/DTD/svg11.dtd">
<!-- Creator: CorelDRAW 2018 (64-Bit) -->
<svg xmlns="http://www.w3.org/2000/svg" xml:space="preserve" width="186px" height="27px" version="1.1" style="shape-rendering:geometricPrecision; text-rendering:geometricPrecision; image-rendering:optimizeQuality; fill-rule:evenodd; clip-rule:evenodd"
viewBox="0 0 186 27.05"
 xmlns:xlink="http://www.w3.org/1999/xlink">
 <defs>
  <style type="text/css">
   <![CDATA[
    .fil0 {fill:#ff7029}
   ]]>
  </style>
 </defs>
 <g id="Слой_x0020_1">
  <metadata id="CorelCorpID_0Corel-Layer"/>
  <g id="_2532977044896">
   <path class="fil0" d="M179.67 5.57l-0.85 0 0 -1.45 0.9 0c0.47,0 0.75,0.01 0.84,0.02 0.19,0.03 0.33,0.11 0.43,0.23 0.1,0.11 0.16,0.27 0.16,0.46 0,0.17 -0.04,0.32 -0.12,0.43 -0.07,0.12 -0.18,0.2 -0.32,0.24 -0.14,0.05 -0.48,0.07 -1.04,0.07zm1.78 1.26c-0.16,-0.18 -0.37,-0.34 -0.62,-0.48 0.51,-0.08 0.88,-0.25 1.13,-0.53 0.25,-0.28 0.37,-0.63 0.37,-1.06 0,-0.34 -0.08,-0.64 -0.25,-0.9 -0.16,-0.26 -0.38,-0.45 -0.66,-0.55 -0.27,-0.1 -0.72,-0.15 -1.33,-0.15l-2.42 0 0 5.71 1.15 0 0 -2.39 0.23 0c0.27,0 0.46,0.02 0.59,0.07 0.12,0.04 0.23,0.12 0.34,0.23 0.11,0.12 0.32,0.4 0.61,0.84l0.83 1.25 1.38 0 -0.7 -1.12c-0.27,-0.44 -0.49,-0.75 -0.65,-0.92zm1.72 2.54c-0.86,0.85 -2.05,1.38 -3.36,1.38 -1.3,0 -2.49,-0.53 -3.35,-1.38 -0.85,-0.86 -1.38,-2.05 -1.38,-3.36 0,-1.31 0.53,-2.49 1.38,-3.35 0.86,-0.86 2.04,-1.39 3.35,-1.39 1.31,0 2.5,0.53 3.36,1.39 0.85,0.86 1.38,2.04 1.38,3.35 0,1.31 -0.53,2.5 -1.38,3.36zm0.61 -7.32l0 -0.01c-1.02,-1.01 -2.42,-1.64 -3.97,-1.64 -1.54,0 -2.95,0.63 -3.96,1.64 -1.02,1.02 -1.65,2.42 -1.65,3.97 0.01,1.55 0.63,2.96 1.65,3.97l0 0c1.01,1.02 2.42,1.64 3.96,1.64 1.55,0 2.95,-0.62 3.97,-1.64l0 0c1.02,-1.01 1.64,-2.42 1.64,-3.97 0,-1.55 -0.62,-2.95 -1.64,-3.96z"/>
   <path class="fil0" d="M43.82 26.52l9.21 0 0 -26.12 -9.21 0 0 26.12zm-21.45 -7.24l-1.65 0 -10.51 -18.88 -9.65 0 14.25 26.12 13.49 0 14.06 -26.12 -9.59 0 -10.4 18.88zm138.01 -18.88l-8.98 7.71 -8.97 -7.71 -12.79 0 15.36 13.21 -15.01 12.9 12.79 0 8.62 -7.4 8.62 7.4 12.79 0 -15.02 -12.9 15.38 -13.21 -12.79 0zm-64.18 6.85l32.28 0 0 -6.85 -32.28 0 0 6.85zm8.3 9.39l23.62 0 0 -6.46 -31.92 0c0,5.45 0,10.89 0,16.34l32.28 0 0 -6.86 -23.98 0 0 -3.02zm-19.35 0.6c0,1.41 -1.16,2.57 -2.57,2.57l-17.35 0 0 -12.6 17.35 0c1.41,0 2.57,1.16 2.57,2.57l0 7.46zm1.84 -16.84l-29.9 0 0 26.12 29.9 0c3.24,0 5.9,-2.67 5.9,-5.92l0 -14.29c0,-3.25 -2.66,-5.91 -5.9,-5.91z"/>
  </g>
 </g>
</svg>
