<svg xmlns="http://www.w3.org/2000/svg" style="display: none;">
    <symbol id="solar-energy" viewBox="0 0 128 128"><title>solar-energy</title><path d="M104.37,78.18V56.212L123,25.091a1.75,1.75,0,0,0-1.5-2.649H61.308a1.751,1.751,0,0,0-1.5.852l-34.423,57.5a1.749,1.749,0,0,0,1.5,2.648H87.077a1.749,1.749,0,0,0,1.5-.851L90.2,79.875c.055.013.11.021.166.029V101.62H64a1.75,1.75,0,0,0-1.75,1.75v10.5H54.54V112.5a1.75,1.75,0,0,0-1.75-1.75H48.538V97.5a1.75,1.75,0,0,0-1.75-1.75H42.57V91.5a1.75,1.75,0,0,0-1.75-1.75h-6a1.75,1.75,0,0,0-1.75,1.75v4.25H20.7V91.5a1.749,1.749,0,0,0-1.75-1.75h-6A1.75,1.75,0,0,0,11.2,91.5v4.25H6.98A1.75,1.75,0,0,0,5.23,97.5v24a1.75,1.75,0,0,0,1.75,1.75H46.788a1.75,1.75,0,0,0,1.75-1.75v-1.25H52.79a1.75,1.75,0,0,0,1.75-1.75v-1.13H64a1.75,1.75,0,0,0,1.75-1.75v-10.5H90.37v2.63H84.146a1.749,1.749,0,0,0-1.75,1.75v4.25H76.712a1.75,1.75,0,0,0-1.75,1.75v6a1.75,1.75,0,0,0,1.75,1.75H116.52a1.75,1.75,0,0,0,1.75-1.75v-6a1.75,1.75,0,0,0-1.75-1.75h-5.685V109.5a1.749,1.749,0,0,0-1.75-1.75H102.87V79.9A1.744,1.744,0,0,0,104.37,78.18ZM36.57,93.25h2.5v2.5h-2.5Zm-21.87,0h2.5v2.5H14.7Zm30.338,26.5H8.73V99.25H45.038Zm6-3h-2.5v-2.5h2.5Zm49.83-40.32h-8.5v-.173l8.5-14.2ZM49.876,79.942l4.789-8H70.49l-4.789,8Zm6.884-11.5,4.79-8H77.375l-4.79,8Zm-15.114-8H57.471l-4.789,8H36.856Zm6.884-11.5H64.356l-4.79,8H43.741Zm6.885-11.5H71.24l-4.789,8H50.626Zm42.614-11.5-4.79,8H77.414l4.79-8Zm-6.885,11.5-4.789,8H70.53l4.789-8Zm15.6,8H90.433l4.79-8h16.305Zm-6.885,11.5h-16.3l4.789-8h16.305Zm-20.384,0H63.645l4.789-8H84.259Zm1.983,3.5H97.759l-4.79,8h-16.3Zm32.17-26.5H97.318l4.789-8h16.306Zm-51.323-8H78.125l-4.789,8H57.51Zm-27.539,46H50.586l-4.789,8H29.972Zm51.323,8H69.779l4.79-8h16.3ZM114.77,119.75H78.462v-2.5H114.77Zm-7.435-6H85.9v-2.5h21.439Zm-13.465-6V79.93h5.5v27.82Z"/><path d="M6.5,24.75H9.374a13.651,13.651,0,0,0,2.757,6.639L10.09,33.43a1.754,1.754,0,0,0,2.48,2.48l2.041-2.041a13.651,13.651,0,0,0,6.639,2.757V39.5a1.75,1.75,0,0,0,3.5,0V36.626a13.651,13.651,0,0,0,6.639-2.757L33.43,35.91a1.754,1.754,0,1,0,2.48-2.48l-2.041-2.041a13.651,13.651,0,0,0,2.757-6.639H39.5a1.75,1.75,0,0,0,0-3.5H36.626a13.651,13.651,0,0,0-2.757-6.639L35.91,12.57a1.754,1.754,0,1,0-2.48-2.48l-2.041,2.04A13.66,13.66,0,0,0,24.75,9.374V6.5a1.75,1.75,0,0,0-3.5,0V9.374a13.66,13.66,0,0,0-6.639,2.756L12.57,10.09a1.754,1.754,0,0,0-2.48,2.48l2.041,2.041A13.651,13.651,0,0,0,9.374,21.25H6.5a1.75,1.75,0,0,0,0,3.5Zm16.5-12A10.25,10.25,0,1,1,12.75,23,10.261,10.261,0,0,1,23,12.75Z"/><path d="M12.98,106a1.75,1.75,0,0,0-1.75,1.75V114a1.75,1.75,0,0,0,3.5,0v-6.25A1.749,1.749,0,0,0,12.98,106Z"/><path d="M29.008,107.75H27.22l1.318-3.8a1.75,1.75,0,0,0-3.307-1.146l-2.123,6.125a1.749,1.749,0,0,0,1.653,2.323h1.788l-1.318,3.8a1.749,1.749,0,0,0,1.08,2.226,1.716,1.716,0,0,0,.573.1,1.751,1.751,0,0,0,1.654-1.177l2.123-6.125a1.749,1.749,0,0,0-1.653-2.323Z"/></symbol>
    <symbol id="solar-panel" viewBox="0 0 128 128"><title>solar-panel</title><path d="M123.181,67.013l-17.693-61a1.75,1.75,0,0,0-1.68-1.263H24.192a1.75,1.75,0,0,0-1.68,1.263l-17.693,61a1.742,1.742,0,0,0-.069.487v9A1.75,1.75,0,0,0,6.5,78.25H49.78V82.5a1.75,1.75,0,0,0,1.75,1.75h6.22v23.5H51.53a1.75,1.75,0,0,0-1.75,1.75v4.25H24.192a1.751,1.751,0,0,0-1.75,1.75v6a1.751,1.751,0,0,0,1.75,1.75h79.616a1.751,1.751,0,0,0,1.75-1.75v-6a1.751,1.751,0,0,0-1.75-1.75H78.22V109.5a1.75,1.75,0,0,0-1.75-1.75H70.25V84.25h6.22a1.75,1.75,0,0,0,1.75-1.75V78.25H121.5a1.75,1.75,0,0,0,1.75-1.75v-9A1.742,1.742,0,0,0,123.181,67.013ZM8.83,65.75l7.686-26.5H35.432l-4.178,26.5Zm30.145-26.5H62.25v26.5H34.8Zm26.775,0H89.025L93.2,65.75H65.75Zm31,26.5-4.178-26.5h18.916l7.686,26.5Zm13.723-30H92.017L87.682,8.25h14.811Zm-21.995,0H65.75V8.25H84.139ZM62.25,8.25v27.5H39.526l4.335-27.5Zm-36.743,0H40.318l-4.335,27.5H17.531ZM8.25,69.25H31v5.5H8.25Zm26.25,0H62.25v5.5H34.5Zm67.558,50.5H25.942v-2.5h76.116Zm-27.338-6H53.28v-2.5H74.72Zm-7.97-6h-5.5V84.25h5.5Zm7.97-27H53.28v-2.5H74.72Zm1.75-6H65.75v-5.5H93.5v5.5Zm20.53,0v-5.5h22.75v5.5Z"/><path d="M99.019,17.81l1.683,5.8a1.75,1.75,0,1,0,3.361-.975l-1.683-5.8a1.75,1.75,0,1,0-3.361.975Z"/></symbol>
    <symbol id="solar-energy" viewBox="0 0 64 64"><title>solar-energy</title><path d="m53 29h4v32h-4z" fill="#ccc"/><path d="m55 42a2.99 2.99 0 0 1 2-2.816v-10.184h-4v32h2z" fill="#93999a"/><path d="m55 35h-35l-13 26h35z" fill="#aae1f9"/><path d="m19 23h36a0 0 0 0 1 0 0v12a0 0 0 0 1 0 0h-36a6 6 0 0 1 -6-6 6 6 0 0 1 6-6z" fill="#ccc"/><circle cx="12" cy="12" fill="#f9e109" r="5"/><path d="m14 15a5 5 0 0 1 -5-5 4.95 4.95 0 0 1 .625-2.375 4.984 4.984 0 1 0 6.75 6.75 4.95 4.95 0 0 1 -2.375.625z" fill="#fcbc04"/><path d="m55 35-48 26h35z" fill="#57b7eb"/><path d="m48.738 23a8 8 0 0 1 -7.738 6h-28a6 6 0 0 0 6 6h36v-12z" fill="#93999a"/><circle cx="55" cy="29" fill="#656b76" r="6"/><g fill="#57b7eb"><path d="m27.12 35-13 26h-2.24l13-26z"/><path d="m32.12 35-13 26h-2.24l13-26z"/><path d="m37.12 35-13 26h-2.24l13-26z"/><path d="m42.12 35-13 26h-2.24l13-26z"/><path d="m47.12 35-13 26h-2.24l13-26z"/><path d="m52.12 35-13 26h-2.24l13-26z"/><path d="m52.12 35-13 26h-2.24l13-26z"/><path d="m47.12 35-13 26h-2.24l13-26z"/><path d="m42.12 35-13 26h-2.24l13-26z"/><path d="m37.12 35-13 26h-2.24l13-26z"/><path d="m32.12 35-13 26h-2.24l13-26z"/><path d="m27.12 35-13 26h-2.24l13-26z"/><path d="m22.12 35-13 26h-2.24l13-26z"/></g><circle cx="12" cy="4" fill="#f9e109" r="1"/><circle cx="12" cy="20" fill="#f9e109" r="1"/><circle cx="4" cy="12" fill="#f9e109" r="1"/><circle cx="20" cy="12" fill="#f9e109" r="1"/><g fill="#fcbc04"><path d="m54.171 19.485a1 1 0 0 1 -.707-1.707 3 3 0 0 0 0-4.242 5.008 5.008 0 0 1 0-7.072 1 1 0 1 1 1.414 1.414 3.006 3.006 0 0 0 0 4.244 5 5 0 0 1 0 7.07.993.993 0 0 1 -.707.293z"/><path d="m49.171 19.485a1 1 0 0 1 -.707-1.707 3 3 0 0 0 0-4.242 5.008 5.008 0 0 1 0-7.072 1 1 0 1 1 1.414 1.414 3.006 3.006 0 0 0 0 4.244 5 5 0 0 1 0 7.07.993.993 0 0 1 -.707.293z"/><path d="m44.171 19.485a1 1 0 0 1 -.707-1.707 3 3 0 0 0 0-4.242 5.008 5.008 0 0 1 0-7.072 1 1 0 1 1 1.414 1.414 3.006 3.006 0 0 0 0 4.244 5 5 0 0 1 0 7.07.993.993 0 0 1 -.707.293z"/><path d="m39.171 19.485a1 1 0 0 1 -.707-1.707 3 3 0 0 0 0-4.242 5.008 5.008 0 0 1 0-7.072 1 1 0 1 1 1.414 1.414 3.006 3.006 0 0 0 0 4.244 5 5 0 0 1 0 7.07.993.993 0 0 1 -.707.293z"/><path d="m34.171 19.485a1 1 0 0 1 -.707-1.707 3 3 0 0 0 0-4.242 5.008 5.008 0 0 1 0-7.072 1 1 0 1 1 1.414 1.414 3.006 3.006 0 0 0 0 4.244 5 5 0 0 1 0 7.07.993.993 0 0 1 -.707.293z"/><path d="m29.171 19.485a1 1 0 0 1 -.707-1.707 3 3 0 0 0 0-4.242 5.008 5.008 0 0 1 0-7.072 1 1 0 1 1 1.414 1.414 3.006 3.006 0 0 0 0 4.244 5 5 0 0 1 0 7.07.993.993 0 0 1 -.707.293z"/></g><path d="m57 30a1 1 0 0 1 -1-1 1 1 0 0 0 -1-1 1 1 0 0 1 0-2 3 3 0 0 1 3 3 1 1 0 0 1 -1 1z" fill="#93999a"/><circle cx="17.657" cy="6.343" fill="#f9e109" r="1"/><circle cx="6.343" cy="17.657" fill="#f9e109" r="1"/><circle cx="6.343" cy="6.343" fill="#f9e109" r="1"/><circle cx="17.657" cy="17.657" fill="#f9e109" r="1"/><g fill="#d0d8da"><path d="m51.12 35-13 26h-2.24l13-26z"/><path d="m46.12 35-13 26h-2.24l13-26z"/><path d="m41.12 35-13 26h-2.24l13-26z"/><path d="m36.12 35-13 26h-2.24l13-26z"/><path d="m31.12 35-13 26h-2.24l13-26z"/><path d="m26.12 35-13 26h-2.24l13-26z"/><path d="m21.12 35-13 26h-2.24l13-26z"/><path d="m56.12 35-13 26h-2.24l13-26z"/></g></symbol>
    <symbol id="solar-house" viewBox="0 0 512 512"><title>solar-house</title><path d="M491.122,94.234c-1.963-1.446-5.172-3.811-6.061-5.075.09-1.6,1.763-5.446,2.786-7.8,2.79-6.417,6.263-14.4,2.226-21.381-4.079-7.05-12.8-8.029-19.811-8.815-2.5-.28-6.583-.739-8-1.428-.69-1.418-1.148-5.5-1.428-8-.786-7.009-1.766-15.731-8.814-19.809-6.978-4.04-14.965-.567-21.383,2.225-2.35,1.022-6.2,2.7-7.8,2.785-1.265-.889-3.629-4.1-5.075-6.061C413.538,15.141,408.277,8,400,8s-13.538,7.141-17.766,12.878c-1.446,1.963-3.811,5.172-5.075,6.061-1.6-.09-5.446-1.763-7.8-2.786-6.416-2.791-14.4-6.261-21.381-2.226-7.05,4.079-8.029,12.8-8.815,19.811-.28,2.5-.739,6.583-1.428,8-1.418.69-5.5,1.148-8,1.428-7.009.786-15.731,1.766-19.809,8.814-4.039,6.979-.566,14.965,2.225,21.383,1.022,2.349,2.695,6.2,2.785,7.8-.889,1.265-4.1,3.629-6.061,5.075C303.141,98.462,296,103.723,296,112s7.141,13.538,12.878,17.766c1.963,1.446,5.172,3.811,6.061,5.075-.09,1.6-1.763,5.446-2.786,7.8-2.79,6.417-6.263,14.4-2.226,21.381,4.079,7.05,12.8,8.029,19.811,8.815,2.5.28,6.583.739,8,1.428.69,1.418,1.148,5.5,1.428,8,.064.568.131,1.151.2,1.738H120a8,8,0,0,0-6.6,3.486l-.006,0-104,152A8.006,8.006,0,0,0,8,344V496a8,8,0,0,0,8,8H448a8,8,0,0,0,8-8V336a7.95,7.95,0,0,0-1.521-4.679l.006-.005-92.8-128.495a69.6,69.6,0,0,0,7.68-2.975c2.35-1.022,6.2-2.695,7.8-2.785,1.265.889,3.629,4.1,5.075,6.061C386.462,208.859,391.723,216,400,216s13.538-7.141,17.766-12.878c1.446-1.963,3.811-5.172,5.075-6.061,1.6.09,5.446,1.763,7.8,2.786,6.417,2.791,14.4,6.262,21.381,2.226,7.05-4.079,8.029-12.8,8.815-19.811.28-2.5.739-6.583,1.428-8,1.418-.69,5.5-1.148,8-1.428,7.009-.786,15.731-1.766,19.809-8.814,4.039-6.979.566-14.965-2.225-21.383-1.022-2.349-2.695-6.2-2.785-7.8.889-1.265,4.1-3.629,6.061-5.075C496.859,125.538,504,120.277,504,112S496.859,98.462,491.122,94.234ZM204.979,296h60.264l23.111,32H228.09Zm97.6-48,23.112,32H273.424l-23.112-32Zm-63.819-16-23.111-32H267.91l23.111,32Zm14.931,48H193.424l-23.111-32h60.263Zm54.4,48-23.111-32h52.264l23.111,32Zm72,0-23.111-32h52.264l23.111,32Zm-34.666-48-23.112-32h52.264l23.111,32Zm-34.667-48-23.111-32h52.263l23.111,32ZM195.91,200l23.111,32H158.757l-23.111-32ZM24,346.475l96.177-140.566L216,338.586V488H160V384a8,8,0,0,0-8-8H88a8,8,0,0,0-8,8V488H24ZM144,488H96V392h48Zm296,0H232V344H440Zm41.631-371.115c-5.134,3.783-10.443,7.695-12.066,13.766-1.667,6.237,1.136,12.681,3.609,18.367a53,53,0,0,1,2.592,6.759,51.965,51.965,0,0,1-7.288,1.157c-6.119.686-13.053,1.463-17.567,5.978s-5.292,11.448-5.978,17.566a52.154,52.154,0,0,1-1.156,7.289,52.95,52.95,0,0,1-6.759-2.593c-5.687-2.473-12.137-5.278-18.367-3.609-6.072,1.623-9.983,6.932-13.766,12.066A47.76,47.76,0,0,1,400,199.6a47.76,47.76,0,0,1-4.885-5.967c-3.783-5.134-7.695-10.443-13.766-12.066a15.247,15.247,0,0,0-3.952-.5c-4.96,0-9.924,2.159-14.415,4.112a53.054,53.054,0,0,1-6.759,2.592,51.965,51.965,0,0,1-1.157-7.288c-.686-6.119-1.463-13.053-5.978-17.567s-11.448-5.292-17.566-5.978a52.154,52.154,0,0,1-7.289-1.156,52.95,52.95,0,0,1,2.593-6.759c2.473-5.686,5.276-12.131,3.609-18.367-1.623-6.072-6.932-9.983-12.066-13.766A47.76,47.76,0,0,1,312.4,112a47.76,47.76,0,0,1,5.967-4.885c5.134-3.783,10.443-7.695,12.066-13.766,1.667-6.237-1.136-12.681-3.609-18.367a53,53,0,0,1-2.592-6.759,51.965,51.965,0,0,1,7.288-1.157c6.119-.686,13.053-1.463,17.567-5.978s5.292-11.448,5.978-17.566a52.154,52.154,0,0,1,1.156-7.289,52.95,52.95,0,0,1,6.759,2.593c5.687,2.474,12.137,5.277,18.367,3.609,6.072-1.623,9.983-6.932,13.766-12.066A47.76,47.76,0,0,1,400,24.4a47.76,47.76,0,0,1,4.885,5.967c3.783,5.134,7.695,10.443,13.766,12.066,6.235,1.667,12.681-1.135,18.367-3.609a53.054,53.054,0,0,1,6.759-2.592,51.965,51.965,0,0,1,1.157,7.288c.686,6.119,1.463,13.053,5.978,17.567s11.448,5.292,17.566,5.978a52.154,52.154,0,0,1,7.289,1.156,52.95,52.95,0,0,1-2.593,6.759c-2.473,5.686-5.276,12.131-3.609,18.367,1.623,6.072,6.932,9.983,12.066,13.766A47.76,47.76,0,0,1,487.6,112,47.76,47.76,0,0,1,481.631,116.885Z"/><path d="M400,56a56,56,0,1,0,56,56A56.063,56.063,0,0,0,400,56Zm0,96a40,40,0,1,1,40-40A40.045,40.045,0,0,1,400,152Z"/><path d="M104,320h16l-14.4,19.2a8,8,0,1,0,12.8,9.6l24-32A8,8,0,0,0,136,304H120l14.4-19.2a8,8,0,1,0-12.8-9.6l-24,32A8,8,0,0,0,104,320Z"/><path d="M288,440h96a8,8,0,0,0,8-8V384a8,8,0,0,0-8-8H288a8,8,0,0,0-8,8v48A8,8,0,0,0,288,440Zm88-16H344V392h32Zm-80-32h32v32H296Z"/><path d="M40,152a32.017,32.017,0,0,0,10.827-1.888,47.979,47.979,0,0,0,58.346,0,31.994,31.994,0,0,0,41.8-38.138c.341.011.681.026,1.025.026a32.017,32.017,0,0,0,10.827-1.888,47.979,47.979,0,0,0,58.346,0A32,32,0,1,0,233.6,48.039a48.011,48.011,0,0,0-83.2,0,32,32,0,0,0-29.724,38.517A47.985,47.985,0,0,0,38.4,88.039,32,32,0,0,0,40,152ZM152,64a16.217,16.217,0,0,1,2.162.151,8,8,0,0,0,8.425-4.769,32.009,32.009,0,0,1,58.826,0,8,8,0,0,0,8.425,4.769A16.217,16.217,0,0,1,232,64a16,16,0,1,1-8.091,29.8,8,8,0,0,0-9.629,1.155,31.966,31.966,0,0,1-44.56,0,8,8,0,0,0-9.629-1.155A16,16,0,1,1,152,64ZM40,104a16.217,16.217,0,0,1,2.162.151,8,8,0,0,0,8.425-4.769,32.009,32.009,0,0,1,58.826,0,8,8,0,0,0,8.425,4.769A16.217,16.217,0,0,1,120,104a16,16,0,1,1-8.091,29.8,8,8,0,0,0-9.629,1.155,31.966,31.966,0,0,1-44.56,0,8,8,0,0,0-9.629-1.155A16,16,0,1,1,40,104Z"/></symbol>
    <symbol id="solar-panel" viewBox="0 0 512 512"><title>solar-panel</title><path d="m302.681 158.429 173.415 173.415 28.263-28.263-201.678-201.678-201.677 201.678 28.262 28.263z" fill="#e4936b"/><path d="m302.681 101.903-10 10 160.117 160.117c6.385 6.385 6.385 16.736 0 23.121l-6.702 6.702 30 30 28.262-28.262z" fill="#e27d47"/><path d="m56.42 160.547h235.057v26.738h-235.057z" fill="#698ed5" transform="matrix(.707 -.707 .707 .707 -72.029 173.939)"/><path d="m302.681 158.429-146.026 146.026v165.889h292.038v-165.904z" fill="#f1f4f6"/><path d="m302.681 158.429-10 10 109.732 109.732c4.021 4.021 6.279 9.474 6.279 15.16v135.584c0 11.841-9.599 21.439-21.439 21.439h-230.598v20h292.038v-165.904z" fill="#dfeaef"/><path d="m502.327 504.5h-399.306v-16.445c0-9.781 7.929-17.711 17.711-17.711h363.885c9.781 0 17.711 7.929 17.711 17.711v16.445z" fill="#80cb8e"/><path d="m484.616 470.344h-22.289v3.356c0 5.964-4.835 10.8-10.799 10.8h-348.15c-.234 1.148-.357 2.337-.357 3.555v16.445h399.306v-16.445c0-9.782-7.929-17.711-17.711-17.711z" fill="#66b49d"/><path d="m243.88 115.929h25v26.738h-25z" fill="#9bb9c1" transform="matrix(.707 -.707 .707 .707 -16.336 219.157)"/><path d="m116.831 242.978h25v26.738h-25z" fill="#9bb9c1" transform="matrix(.707 -.707 .707 .707 -143.384 166.533)"/><path d="m448.693 247.915v-118.617h-50.626v67.992z" fill="#738b95"/><path d="m428.693 129.298v68.109c0 11.258-13.612 16.896-21.572 8.936l41.572 41.572v-118.617z" fill="#617881"/><circle cx="65.432" cy="65.29" fill="#f4dd45" r="26.216"/><circle cx="302.674" cy="252.406" fill="#ddeafb" r="31.232"/><path d="m199.503 317.911h88.757v152.433h-88.757z" fill="#e4936b"/><path d="m258.26 317.911v113.141c0 10.655-8.637 19.292-19.292 19.292h-39.465v20h88.757v-152.433z" fill="#e27d47"/><circle cx="274.585" cy="389.127" fill="#f4dd45" r="13.674"/><path d="m329.628 317.911h76.217v76.217h-76.217z" fill="#ddeafb"/><path d="m375.844 317.911v42.617c0 7.511-6.089 13.6-13.6 13.6h-32.617v20h76.217v-76.217z" fill="#cbe2ff"/><path d="m31.715 65.291c0 18.591 15.125 33.716 33.716 33.716s33.716-15.125 33.716-33.716-15.125-33.716-33.716-33.716-33.716 15.124-33.716 33.716zm33.717-18.717c10.32 0 18.716 8.396 18.716 18.716s-8.396 18.716-18.716 18.716-18.717-8.396-18.717-18.715c0-10.321 8.396-18.717 18.717-18.717z"/><path d="m263.942 252.406c0 21.357 17.375 38.732 38.732 38.732s38.732-17.375 38.732-38.732-17.375-38.732-38.732-38.732-38.732 17.375-38.732 38.732zm62.464 0c0 13.086-10.646 23.732-23.732 23.732s-23.732-10.646-23.732-23.732 10.646-23.732 23.732-23.732 23.732 10.646 23.732 23.732z"/><path d="m167.15 126.683c-4.142 0-7.5 3.358-7.5 7.5v9.516l-26.474-26.474c-2.929-2.929-7.678-2.929-10.606 0-2.929 2.929-2.929 7.678 0 10.606l26.474 26.474h-9.516c-4.142 0-7.5 3.358-7.5 7.5s3.358 7.5 7.5 7.5h9.518l-20.85 20.85v-9.518c0-4.142-3.358-7.5-7.5-7.5s-7.5 3.358-7.5 7.5v9.517l-26.475-26.474c-2.929-2.929-7.678-2.929-10.606 0-2.929 2.929-2.929 7.678 0 10.606l26.474 26.474h-9.517c-4.142 0-7.5 3.358-7.5 7.5s3.358 7.5 7.5 7.5h9.518l-26.503 26.503c-2.927 2.926-2.929 7.678 0 10.606l18.907 18.907c2.929 2.929 7.678 2.929 10.606 0l5.439-5.439 8.3 8.301-23.639 23.639c-2.929 2.929-2.929 7.678 0 10.606l28.263 28.263c2.926 2.927 7.678 2.929 10.606 0l14.585-14.585v140.282h-28.423c-13.901 0-25.211 11.31-25.211 25.211v16.446c0 4.142 3.358 7.5 7.5 7.5h399.307c4.143 0 7.5-3.358 7.5-7.5v-16.445c0-13.901-11.31-25.211-25.211-25.211h-28.424v-140.298l14.601 14.601c2.928 2.927 7.678 2.929 10.607 0l28.262-28.263c2.929-2.929 2.929-7.678 0-10.606l-53.47-53.47v-65.893c0-4.142-3.357-7.5-7.5-7.5s-7.5 3.358-7.5 7.5v50.893l-35.625-35.625v-57.385h35.625v7.118c0 4.142 3.357 7.5 7.5 7.5s7.5-3.358 7.5-7.5v-14.618c0-4.142-3.357-7.5-7.5-7.5h-50.625c-4.143 0-7.5 3.358-7.5 7.5v49.885l-82.583-82.583c-2.93-2.929-7.678-2.929-10.607 0l-22.705 22.706-8.3-8.3 5.439-5.439c2.929-2.929 2.929-7.678 0-10.606l-18.907-18.907c-2.926-2.927-7.678-2.929-10.606 0l-21.192 21.192v-9.518c0-4.142-3.358-7.5-7.5-7.5s-7.5 3.358-7.5 7.5v9.516l-26.474-26.474c-2.929-2.929-7.678-2.929-10.606 0-2.929 2.929-2.929 7.678 0 10.606l26.474 26.474h-9.517c-4.142 0-7.5 3.358-7.5 7.5s3.358 7.5 7.5 7.5h9.518l-20.85 20.85v-9.518c-.001-4.141-3.359-7.499-7.501-7.499zm-45.505 129.049 7.071-7.071 8.3 8.3-7.071 7.071zm373.182 232.323v8.945h-384.306v-8.945c0-5.63 4.581-10.211 10.211-10.211h363.885c5.629 0 10.21 4.58 10.21 10.211zm-53.634-25.211h-145.433v-6.874c0-4.142-3.357-7.5-7.5-7.5s-7.5 3.358-7.5 7.5v6.874h-73.757v-137.433h73.757v43.46c-13.602-4.154-27.349 6.09-27.349 20.256s13.746 24.41 27.349 20.256v11.587c0 4.142 3.357 7.5 7.5 7.5s7.5-3.358 7.5-7.5v-103.059c0-4.142-3.357-7.5-7.5-7.5h-88.757c-4.142 0-7.5 3.358-7.5 7.5v144.933h-27.848v-155.282l138.526-138.526 138.512 138.511zm-160.433-73.717c0 3.404-2.77 6.174-6.175 6.174-3.404 0-6.174-2.77-6.174-6.174s2.77-6.174 6.174-6.174c3.405 0 6.175 2.77 6.175 6.174zm21.921-276.617 191.071 191.071-17.655 17.656-168.113-168.112c-2.93-2.929-7.678-2.929-10.607 0l-168.111 168.112-17.656-17.657 118.45-118.449c2.929-2.929 2.929-7.678 0-10.606-2.929-2.929-7.678-2.929-10.606 0l-71.83 71.83-8.3-8.3 98.764-98.764 8.3 8.3-1.834 1.834c-2.929 2.929-2.929 7.678 0 10.606 2.929 2.929 7.678 2.929 10.606 0 5.942-5.942 44.427-44.428 47.521-47.521zm-38.616 17.402-7.071 7.071-8.3-8.3 7.071-7.071zm-16.464-37.949 8.3 8.3-155.604 155.605-8.3-8.3z"/><path d="m72.932 13.75v-6.25c0-4.142-3.358-7.5-7.5-7.5s-7.5 3.358-7.5 7.5v6.25c0 4.142 3.358 7.5 7.5 7.5s7.5-3.358 7.5-7.5z"/><path d="m100.993 19.123-4.419 4.419c-2.929 2.929-2.929 7.678 0 10.606 2.929 2.929 7.678 2.929 10.606 0l4.419-4.419c2.929-2.929 2.929-7.678 0-10.606-2.928-2.929-7.677-2.929-10.606 0z"/><path d="m123.222 57.791h-6.25c-4.142 0-7.5 3.358-7.5 7.5s3.358 7.5 7.5 7.5h6.25c4.142 0 7.5-3.358 7.5-7.5s-3.358-7.5-7.5-7.5z"/><path d="m111.599 111.458c2.929-2.929 2.929-7.678 0-10.606l-4.419-4.419c-2.929-2.929-7.678-2.929-10.606 0-2.929 2.929-2.929 7.678 0 10.606l4.419 4.419c2.929 2.929 7.677 2.928 10.606 0z"/><path d="m57.932 116.831v6.25c0 4.142 3.358 7.5 7.5 7.5s7.5-3.358 7.5-7.5v-6.25c0-4.142-3.358-7.5-7.5-7.5s-7.5 3.358-7.5 7.5z"/><path d="m23.683 96.432-4.419 4.419c-2.929 2.929-2.928 7.678 0 10.607 2.929 2.928 7.678 2.929 10.607 0l4.419-4.419c2.929-2.929 2.928-7.678 0-10.607-2.93-2.93-7.678-2.929-10.607 0z"/><path d="m7.641 57.791c-4.142 0-7.5 3.358-7.5 7.5s3.358 7.5 7.5 7.5h6.25c4.142 0 7.5-3.358 7.5-7.5s-3.358-7.5-7.5-7.5z"/><path d="m29.872 19.123c-2.929-2.928-7.678-2.929-10.607 0s-2.929 7.678 0 10.607l4.419 4.419c2.93 2.929 7.677 2.929 10.607 0 2.929-2.929 2.929-7.678 0-10.607z"/><path d="m322.128 317.911v76.216c0 4.142 3.357 7.5 7.5 7.5h76.217c4.143 0 7.5-3.358 7.5-7.5v-76.216c0-4.142-3.357-7.5-7.5-7.5h-76.217c-4.143 0-7.5 3.358-7.5 7.5zm15 7.5h61.217v61.216h-61.217z"/></symbol>
    <symbol id="solar-energy-1" viewBox="0 0 512 512"><title>solar-energy-1</title><path d="m431.5 128c26.191 0 47.5-21.309 47.5-47.5s-21.309-47.5-47.5-47.5-47.5 21.309-47.5 47.5 21.309 47.5 47.5 47.5zm0-80c17.92 0 32.5 14.58 32.5 32.5s-14.58 32.5-32.5 32.5-32.5-14.58-32.5-32.5 14.58-32.5 32.5-32.5z"/><path d="m431.5 22.449c4.142 0 7.5-3.358 7.5-7.5v-7.449c0-4.142-3.358-7.5-7.5-7.5s-7.5 3.358-7.5 7.5v7.449c0 4.142 3.358 7.5 7.5 7.5z"/><path d="m424 146.051v7.449c0 4.142 3.358 7.5 7.5 7.5s7.5-3.358 7.5-7.5v-7.449c0-4.142-3.358-7.5-7.5-7.5s-7.5 3.358-7.5 7.5z"/><path d="m392.229 27.481c1.389 2.406 3.91 3.751 6.502 3.751 1.272 0 2.563-.325 3.743-1.006 3.587-2.071 4.816-6.658 2.745-10.245l-3.725-6.451c-2.071-3.588-6.659-4.814-10.245-2.745-3.587 2.071-4.816 6.658-2.745 10.245z"/><path d="m460.525 130.774c-3.587 2.071-4.816 6.658-2.745 10.245l3.725 6.451c1.389 2.406 3.91 3.751 6.502 3.751 1.272 0 2.563-.325 3.743-1.006 3.587-2.071 4.816-6.658 2.745-10.245l-3.725-6.451c-2.07-3.588-6.659-4.815-10.245-2.745z"/><path d="m364.53 50.495 6.451 3.725c1.181.682 2.471 1.006 3.743 1.006 2.592 0 5.113-1.345 6.502-3.751 2.071-3.587.842-8.174-2.745-10.245l-6.451-3.725c-3.588-2.072-8.174-.843-10.245 2.745-2.071 3.587-.842 8.174 2.745 10.245z"/><path d="m484.519 119.771 6.451 3.725c1.181.682 2.471 1.006 3.743 1.006 2.592 0 5.113-1.345 6.502-3.751 2.071-3.587.842-8.174-2.745-10.245l-6.451-3.725c-3.587-2.073-8.174-.843-10.245 2.745-2.071 3.586-.842 8.173 2.745 10.245z"/><path d="m358.5 88h7.449c4.142 0 7.5-3.358 7.5-7.5s-3.358-7.5-7.5-7.5h-7.449c-4.142 0-7.5 3.358-7.5 7.5s3.358 7.5 7.5 7.5z"/><path d="m489.551 80.5c0 4.142 3.358 7.5 7.5 7.5h7.449c4.142 0 7.5-3.358 7.5-7.5s-3.358-7.5-7.5-7.5h-7.449c-4.142 0-7.5 3.358-7.5 7.5z"/><path d="m370.981 106.78-6.451 3.725c-3.587 2.071-4.816 6.658-2.745 10.245 1.389 2.406 3.91 3.751 6.502 3.751 1.272 0 2.563-.325 3.743-1.006l6.451-3.725c3.587-2.071 4.816-6.658 2.745-10.245s-6.659-4.815-10.245-2.745z"/><path d="m488.276 55.226c1.272 0 2.563-.325 3.743-1.006l6.451-3.725c3.587-2.071 4.816-6.658 2.745-10.245-2.072-3.588-6.66-4.815-10.245-2.745l-6.451 3.725c-3.587 2.071-4.816 6.658-2.745 10.245 1.389 2.406 3.91 3.751 6.502 3.751z"/><path d="m392.229 133.519-3.725 6.451c-2.071 3.587-.842 8.174 2.745 10.245 1.181.682 2.471 1.006 3.743 1.006 2.592 0 5.113-1.345 6.502-3.751l3.725-6.451c2.071-3.587.842-8.174-2.745-10.245-3.588-2.073-8.174-.843-10.245 2.745z"/><path d="m460.525 30.226c1.181.682 2.471 1.006 3.743 1.006 2.592 0 5.113-1.345 6.502-3.751l3.725-6.451c2.071-3.587.842-8.174-2.745-10.245-3.587-2.072-8.174-.843-10.245 2.745l-3.725 6.451c-2.071 3.587-.842 8.174 2.745 10.245z"/><path d="m494.5 465.777v-17.905c0-4.142-3.358-7.5-7.5-7.5s-7.5 3.358-7.5 7.5v17.128h-79v-105h79v55.872c0 4.142 3.358 7.5 7.5 7.5s7.5-3.358 7.5-7.5v-59.372c0-6.341-5.159-11.5-11.5-11.5h-35.947v-157.744c0-4.142-3.358-7.5-7.5-7.5h-250.495v-42.318l107.706 32.16h.001c1.474.44 2.961.649 4.425.649 6.675 0 12.855-4.352 14.861-11.067l4.192-14.039 22.518 6.724c.716.214 1.438.315 2.149.315 3.229 0 6.212-2.103 7.184-5.356 1.185-3.969-1.072-8.147-5.041-9.333l-297.042-88.692c-3.971-1.186-8.148 1.072-9.333 5.041s1.072 8.147 5.041 9.333l22.517 6.724-4.192 14.039c-1.185 3.967-.753 8.158 1.214 11.801 1.968 3.643 5.236 6.301 9.203 7.486l99.595 29.738v74.039h-110.287c-4.142 0-7.5 3.358-7.5 7.5s3.358 7.5 7.5 7.5h292.231v139h-341v-139h17.077c4.142 0 7.5-3.358 7.5-7.5s-3.358-7.5-7.5-7.5h-24.577c-4.142 0-7.5 3.358-7.5 7.5v154c0 4.142 3.358 7.5 7.5 7.5h21.5v89h-5.5c-12.958 0-23.5 10.542-23.5 23.5s10.542 23.5 23.5 23.5h465c12.958 0 23.5-10.542 23.5-23.5 0-10.885-7.439-20.065-17.5-22.723zm-416.043-377.171c-.098-.182-.054-.332-.039-.38l4.148-13.894 223.26 66.664-4.148 13.894c-.079.264-.355.415-.623.336l-117.205-34.997c-.096-.031-.192-.06-.29-.087l-104.806-31.294c-.049-.015-.198-.059-.297-.242zm110.601 118.394v-12.244h242.995v150.244h-35.053c-6.341 0-11.5 5.159-11.5 11.5v108.5h-14.5v-250.5c0-4.142-3.358-7.5-7.5-7.5zm166.942 169v89h-15v-58.5c0-4.142-3.358-7.5-7.5-7.5h-100c-4.142 0-7.5 3.358-7.5 7.5v58.5h-105v-16.615c0-4.142-3.358-7.5-7.5-7.5s-7.5 3.358-7.5 7.5v16.615h-32v-89h32v40.18c0 4.142 3.358 7.5 7.5 7.5s7.5-3.358 7.5-7.5v-40.18zm-30 89h-85v-51h85zm-282-89h15v89h-15zm444.5 121h-465c-4.687 0-8.5-3.813-8.5-8.5s3.813-8.5 8.5-8.5h465c4.687 0 8.5 3.813 8.5 8.5s-3.813 8.5-8.5 8.5z"/><path d="m30 244.5v94c0 4.142 3.358 7.5 7.5 7.5h296c4.142 0 7.5-3.358 7.5-7.5v-94c0-4.142-3.358-7.5-7.5-7.5h-296c-4.142 0-7.5 3.358-7.5 7.5zm103 86.5v-79h105v79zm193 0h-73v-79h73zm-281-79h73v79h-73z"/><path d="m453.872 376.004c-2.929-2.929-7.678-2.929-10.606 0l-16.958 16.958c-2.929 2.929-2.929 7.678 0 10.606l10.603 10.603-11.677 11.677c-2.929 2.929-2.929 7.677 0 10.606 1.464 1.465 3.384 2.197 5.303 2.197s3.839-.732 5.303-2.197l16.98-16.98c1.407-1.406 2.197-3.314 2.197-5.303s-.79-3.897-2.197-5.303l-10.603-10.603 11.655-11.655c2.929-2.928 2.929-7.677 0-10.606z"/></symbol>
    <symbol id="solar-energy-2" viewBox="0 0 512 512"><title>solar-energy-2</title><g transform="translate(1 5)"> <path style="fill:#7FACFA;" d="M468.333,123c-0.017,47.121-38.212,85.316-85.333,85.333c-4.231,0.005-8.455-0.337-12.629-1.024 c-0.085,0.085-0.171,0.085-0.341,0c-41.626-6.386-72.362-42.196-72.362-84.309s30.736-77.924,72.362-84.309 c0.171-0.085,0.256-0.085,0.341,0c4.175-0.687,8.399-1.029,12.629-1.024C430.121,37.684,468.316,75.879,468.333,123z"/> <path style="fill:#E3E7F2;" d="M442.733,123c-0.021,42.106-30.747,77.904-72.363,84.309c-0.085,0.085-0.171,0.085-0.341,0 c-41.626-6.386-72.362-42.196-72.362-84.309s30.736-77.924,72.362-84.309c0.171-0.085,0.256-0.085,0.341,0 C411.987,45.096,442.712,80.894,442.733,123z"/> <path style="fill:#7FACFA;" d="M502.467,279.672V481.4c-0.028,9.414-7.653,17.039-17.067,17.067H263.533V276.6L370.2,147.064 l12.8-15.531l117.504,142.677C501.773,275.748,502.467,277.679,502.467,279.672z"/> <g> <path style="fill:#E3E7F2;" d="M476.867,279.672V481.4c-0.028,9.414-7.653,17.039-17.067,17.067H263.533V276.6L370.2,147.064 l104.704,127.147C476.173,275.748,476.867,277.679,476.867,279.672z"/> <path style="fill:#E3E7F2;" d="M263.533,276.6v221.867H24.6c-9.414-0.028-17.039-7.653-17.067-17.067V279.672 c-0.008-1.054,0.195-2.098,0.597-3.072H263.533z"/> <path style="fill:#E3E7F2;" d="M383,131.533L263.533,276.6H8.131c0.285-0.882,0.75-1.696,1.365-2.389L121.88,137.763 c3.239-3.923,8.054-6.205,13.141-6.229H383z"/> </g> <path style="fill:#D4E1F4;" d="M365.933,361.933h34.133c9.426,0,17.067,7.641,17.067,17.067v119.467h-68.267V379 C348.867,369.574,356.508,361.933,365.933,361.933z"/> <polygon style="fill:#E3E7F2;" points="314.733,165.667 292.547,190.584 277.443,207.651 246.467,242.467 75.8,242.467 106.776,207.651 121.88,190.584 144.067,165.667 "/> <g> <path style="fill:#FFFFFF;" d="M135.021,131.533h25.6c-5.088,0.024-9.902,2.306-13.141,6.229L35.096,274.211 c-0.616,0.693-1.081,1.507-1.365,2.389c-0.403,0.974-0.606,2.018-0.597,3.072V481.4c0.028,9.414,7.653,17.039,17.067,17.067H24.6 c-9.414-0.028-17.039-7.653-17.067-17.067V279.672c-0.008-1.054,0.195-2.098,0.597-3.072c0.285-0.882,0.75-1.696,1.365-2.389 L121.88,137.763C125.119,133.839,129.934,131.557,135.021,131.533z"/> <path style="fill:#FFFFFF;" d="M323.267,123c0,2.901,0.171,5.717,0.427,8.533h-25.6c-0.256-2.816-0.427-5.632-0.427-8.533 c0.021-42.106,30.747-77.904,72.363-84.309c0.171-0.085,0.256-0.085,0.341,0c8.364-1.365,16.894-1.365,25.259,0 C354.014,45.096,323.288,80.894,323.267,123z"/> </g> </g><g> <polygon style="fill:#FFFFFF;" points="17.067,284.663 17.067,395.597 17.067,486.4 0,486.4 0,395.597 0,284.663 "/> <g> <path style="fill:#428DFF;" d="M8.533,361.461c2.259-0.034,4.422-0.918,6.059-2.475c3.3-3.365,3.3-8.752,0-12.117l-1.279-1.025 c-0.476-0.324-0.993-0.583-1.538-0.771c-0.484-0.246-1.002-0.417-1.538-0.508c-0.564-0.096-1.133-0.153-1.704-0.171 c-2.259,0.031-4.423,0.915-6.059,2.475c-3.221,3.397-3.221,8.72,0,12.117c0.815,0.771,1.77,1.379,2.813,1.792 C6.314,361.216,7.417,361.448,8.533,361.461z"/> <path style="fill:#428DFF;" d="M445.926,198.312c10.418-9.201,18.664-20.599,24.142-33.374l24.916,8.095 c2.906,0.963,6.106,0.296,8.384-1.749c2.279-2.045,3.287-5.154,2.643-8.147c-0.644-2.993-2.843-5.412-5.761-6.338l-24.798-8.057 c3.211-13.644,3.22-27.847,0.026-41.495L500.25,99.2c2.919-0.926,5.118-3.344,5.763-6.338c0.645-2.994-0.364-6.103-2.644-8.148 c-2.279-2.045-5.48-2.712-8.386-1.747l-24.742,8.039c-5.567-12.849-13.928-24.296-24.474-33.508l15.35-21.131 c1.792-2.465,2.133-5.699,0.895-8.484s-3.869-4.697-6.9-5.017c-3.031-0.32-6.002,1.002-7.795,3.467l-15.349,21.129 c-12.007-7.212-25.487-11.621-39.434-12.897V8.533C392.533,3.821,388.713,0,384,0s-8.533,3.821-8.533,8.533v26.032 c-13.948,1.277-27.428,5.685-39.434,12.897l-15.349-21.13c-2.771-3.811-8.106-4.654-11.917-1.883 c-3.811,2.771-4.654,8.106-1.883,11.917l15.35,21.131c-10.547,9.212-18.907,20.659-24.474,33.508l-24.742-8.039 c-2.909-0.972-6.115-0.309-8.399,1.737c-2.284,2.046-3.295,5.161-2.647,8.159c0.648,2.998,2.854,5.417,5.78,6.337l24.772,8.048 c-1.568,6.806-2.37,13.767-2.389,20.752H136.058c-7.652-0.014-14.905,3.409-19.758,9.325L3.9,273.808 c-0.376,0.486-0.725,0.993-1.045,1.517C1.052,276.914,0.013,279.197,0,281.6c0.044,0.311,0.106,0.62,0.186,0.924 c-0.108,0.708-0.17,1.422-0.186,2.137v34.133c0,4.713,3.821,8.533,8.533,8.533s8.533-3.82,8.533-8.533v-28.661H256v204.8H25.6 c-4.711-0.005-8.529-3.822-8.533-8.533v-99.339c0-4.713-3.821-8.533-8.533-8.533S0,382.349,0,387.061V486.4 c0.015,14.132,11.468,25.585,25.6,25.6h460.8c14.132-0.015,25.585-11.468,25.6-25.6V284.663c-0.003-3.959-1.382-7.795-3.9-10.85 L445.926,198.312z M384,51.2c31.85-0.05,60.415,19.594,71.766,49.352s3.123,63.436-20.67,84.609l-44.513-54.053 c-0.076-0.092-0.197-0.119-0.277-0.206c-1.587-1.829-3.885-2.887-6.307-2.902h-76.8C307.248,85.604,341.604,51.248,384,51.2z M129.475,148.175c1.617-1.971,4.034-3.112,6.583-3.108l229.863,0l-105.411,128H26.617L129.475,148.175z M358.4,494.933V384 c0.005-4.711,3.822-8.529,8.533-8.533h34.133c4.711,0.005,8.529,3.822,8.533,8.533v110.933H358.4z M494.933,486.4 c-0.005,4.711-3.822,8.529-8.533,8.533h-59.733V384c-0.015-14.132-11.468-25.585-25.6-25.6h-34.133 c-14.132,0.015-25.585,11.468-25.6,25.6v110.933h-68.267V284.663L384,149.958l110.933,134.704V486.4z"/> <path style="fill:#428DFF;" d="M69.017,250.963C70.392,254.028,73.44,256,76.8,256h170.667c2.436,0,4.756-1.042,6.375-2.862 l68.267-76.8c2.233-2.511,2.785-6.099,1.409-9.165c-1.376-3.066-4.423-5.039-7.784-5.039H145.067 c-2.436,0-4.756,1.042-6.375,2.862l-29.992,33.741l-0.097,0.11l-38.177,42.949C68.192,244.308,67.641,247.896,69.017,250.963z M211.399,179.2l-15.17,17.067h-19.835l15.17-17.067H211.399z M254.066,179.2l-15.17,17.067H219.06l15.17-17.067H254.066z M181.134,238.933l22.755-25.6h19.835l-22.756,25.6H181.134z M181.058,213.333l-22.756,25.6h-19.835l22.755-25.6H181.058z M243.633,238.933h-19.832l22.755-25.6h19.834L243.633,238.933z M281.562,196.267h-19.835l15.17-17.067h19.836L281.562,196.267z M148.9,179.2h19.832l-15.17,17.067h-19.833L148.9,179.2z M118.557,213.333h19.834l-22.756,25.6H95.8L118.557,213.333z"/> </g> </g></symbol>
    <symbol id="battery" viewBox="0 0 64 64"><title>battery</title><path d="M31,34a1,1,0,0,0,.991-1.132l-2-15A1,1,0,0,0,29,17H22.18a6,6,0,1,0-10.36,0H5a1,1,0,0,0-.991.868l-2,15A1,1,0,0,0,3,34ZM5.209,24H9.562l-.188,3H4.809Zm6.357,0H16v3H11.378ZM16,19v3H11.692l.188-3Zm6.12,0,.188,3H18V19Zm7.071,8H24.626l-.188-3h4.353Zm-6.569,0H18V24h4.434ZM16,29v3H11.065l.188-3Zm2,0h4.747l.188,3H18Zm6.939,3-.188-3h4.706l.4,3Zm3.585-10H24.312l-.188-3h4ZM13,14a4,4,0,1,1,6.609,3H14.391A4.011,4.011,0,0,1,13,14ZM9.876,19l-.188,3H5.476l.4-3ZM4.543,29H9.249l-.188,3H4.143Z"/><path d="M61,22H58V18a1,1,0,0,0-1-1H53a1,1,0,0,0-1,1v4H44V18a1,1,0,0,0-1-1H39a1,1,0,0,0-1,1v4H35a1,1,0,0,0-1,1V61a1,1,0,0,0,1,1H61a1,1,0,0,0,1-1V23A1,1,0,0,0,61,22Zm-7-3h2v3H54ZM40,19h2v3H40ZM60,60H36V24H60Z"/><path d="M39,26a1,1,0,0,0-1,1v6a1,1,0,0,0,1,1H57a1,1,0,0,0,1-1V27a1,1,0,0,0-1-1Zm17,6H40V28H56Z"/><path d="M52,46H50.133l.859-6.876a1,1,0,0,0-1.7-.831l-8,8A1,1,0,0,0,42,48h2.719L43.03,54.757a1,1,0,0,0,1.677.95l8-8A1,1,0,0,0,52,46Zm-6.154,5.74,1.124-4.5A1,1,0,0,0,46,46H44.414l4.232-4.232-.638,5.108A1,1,0,0,0,49,48h.586Z"/><path d="M52,12h2v2a1,1,0,0,0,2,0V12h2a1,1,0,0,0,0-2H56V8a1,1,0,0,0-2,0v2H52a1,1,0,0,0,0,2Z"/><path d="M39,12h4a1,1,0,0,0,0-2H39a1,1,0,0,0,0,2Z"/><path d="M17,6a1,1,0,0,0,1-1V3a1,1,0,0,0-2,0V5A1,1,0,0,0,17,6Z"/><path d="M11.634,6.706a1,1,0,0,0,1.732-1l-1-1.732a1,1,0,1,0-1.732,1Z"/><path d="M6.974,9.366l1.732,1a1,1,0,1,0,1-1.732l-1.732-1a1,1,0,1,0-1,1.732Z"/><path d="M6,15H8a1,1,0,0,0,0-2H6a1,1,0,0,0,0,2Z"/><path d="M25,14a1,1,0,0,0,1,1h2a1,1,0,0,0,0-2H26A1,1,0,0,0,25,14Z"/><path d="M24.8,10.5a.992.992,0,0,0,.5-.134l1.732-1a1,1,0,1,0-1-1.732l-1.732,1a1,1,0,0,0,.5,1.866Z"/><path d="M21,7.072a1,1,0,0,0,1.366-.366l1-1.732a1,1,0,1,0-1.732-1l-1,1.732A1,1,0,0,0,21,7.072Z"/><path d="M28.879,44.464a1,1,0,0,0-1.414,1.414L28.586,47H18V37a1,1,0,0,0-2,0V48a1,1,0,0,0,1,1H28.586l-1.121,1.122a1,1,0,1,0,1.414,1.414l2.828-2.829a1,1,0,0,0,0-1.414Z"/><path d="M57,51a1,1,0,0,0-1,1v5a1,1,0,0,0,2,0V52A1,1,0,0,0,57,51Z"/><path d="M57,46a1,1,0,0,0-1,1v1a1,1,0,0,0,2,0V47A1,1,0,0,0,57,46Z"/></symbol>
    <symbol id="solar-energy-3" viewBox="0 0 512 512"><title>solar-energy-3</title><path d="m32 464h264v-16h-120v-128a8 8 0 0 0 -8-8h-96a8 8 0 0 0 -8 8v128h-16v-32h-16v32h-8a8 8 0 0 0 -8 8v32a8 8 0 0 0 8 8h304v-16h-296zm96-136h32v120h-32zm-48 0h32v120h-32z"/><path d="m432 120a40 40 0 1 0 -40-40 40.045 40.045 0 0 0 40 40zm0-64a24 24 0 1 1 -24 24 24.028 24.028 0 0 1 24-24z"/><path d="m424 16h16v16h-16z"/><path d="m424 128h16v16h-16z"/><path d="m384.402 32.402h16v16h-16z" transform="matrix(.707 -.707 .707 .707 86.369 289.31)"/><path d="m463.598 111.598h16v16h-16z" transform="matrix(.707 -.707 .707 .707 53.565 368.509)"/><path d="m463.598 32.402h16v16h-16z" transform="matrix(.707 -.707 .707 .707 109.546 345.288)"/><path d="m384.402 111.598h16v16h-16z" transform="matrix(.707 -.707 .707 .707 30.359 312.492)"/><path d="m368 72h16v16h-16z"/><path d="m480 72h16v16h-16z"/><path d="m24 280h8v120h16v-120h360a8 8 0 0 0 8-8v-16a8.017 8.017 0 0 0 -.533-2.872l-40-104a8 8 0 0 0 -7.467-5.128h-16v-8a8 8 0 0 0 -8-8h-96a8 8 0 0 0 -8 8v8h-79.37l-18.609-21.268a8 8 0 0 0 -12.042 0l-35 40 12.042 10.536 28.979-33.12 104 118.858v4.994h-208v-4.994l61.021-69.738-12.042-10.536-63 72a8 8 0 0 0 -1.979 5.268v16a8 8 0 0 0 8 8zm280-72h-16v-24h16zm-32 0h-16v-24h16zm48-24h16v24h-16zm16-16h-16v-24h16zm-32 0h-16v-24h16zm-48-24h16v24h-16zm-81.37 16h65.37v56a8 8 0 0 0 8 8h96a8 8 0 0 0 8-8v-56h10.5l37.5 97.485v6.515h-144v-8a8 8 0 0 0 -1.979-5.268z"/><path d="m104 288h32v16h-32z"/><path d="m24 144h56a32.122 32.122 0 0 0 23.321-10.089 32 32 0 0 0 -45.233-45.232 32.129 32.129 0 0 0 -9.064 15.321h-5.024a28.032 28.032 0 0 0 -28 28v4a8 8 0 0 0 8 8zm20-24h12a8 8 0 0 0 8-8 16 16 0 0 1 17.036-15.968 16.177 16.177 0 0 1 14.932 14.933 16 16 0 0 1 -15.968 17.035h-47.314a12.02 12.02 0 0 1 11.314-8z"/><path d="m232 96h56a32.122 32.122 0 0 0 23.321-10.089 32 32 0 0 0 -45.233-45.232 32.129 32.129 0 0 0 -9.064 15.321h-5.024a28.032 28.032 0 0 0 -28 28v4a8 8 0 0 0 8 8zm20-24h12a8 8 0 0 0 8-8 16 16 0 0 1 17.036-15.968 16.177 16.177 0 0 1 14.932 14.933 16 16 0 0 1 -15.968 17.035h-47.314a12.02 12.02 0 0 1 11.314-8z"/><path d="m136 184a24.027 24.027 0 0 0 -24 24v24h-16v16h80v-16h-16v-24a24.027 24.027 0 0 0 -24-24zm8 48h-16v-24a8 8 0 0 1 16 0z"/><path d="m389.682 455.656a7.99 7.99 0 0 0 8.974-3.218l48-72a8 8 0 0 0 -6.656-12.438h-24v-32a8 8 0 0 0 -14.021-5.268l-56 64a8 8 0 0 0 6.021 13.268h32v40a8 8 0 0 0 5.682 7.656zm-20.052-63.656 30.37-34.708v18.708a8 8 0 0 0 8 8h17.052l-25.052 37.578v-21.578a8 8 0 0 0 -8-8z"/><path d="m494.566 348.663-14.541 6.674a88.016 88.016 0 1 1 -80.025-51.337 88.29 88.29 0 0 1 71.489 36.672l12.989-9.344a103.95 103.95 0 0 0 -164.478-5.71v-5.618a8 8 0 0 0 -8-8h-112a8 8 0 0 0 -8 8v104a8 8 0 0 0 8 8h104a104.011 104.011 0 1 0 190.566-83.337zm-246.566 67.337h-40v-88h40zm56-64a104.161 104.161 0 0 0 -5.2 64h-34.8v-88h40z"/></symbol>
    <symbol id="guarantee" viewBox="0 0 512.004 512"><title>guarantee</title><path d="m490.925781 213.90625-6.585937-4.925781c-8.203125-6.140625-11.113282-17.007813-7.082032-26.425781l3.242188-7.558594c6.585938-15.378906 5.566406-32.507813-2.796875-46.992188-8.367187-14.488281-22.6875-23.9375-39.300781-25.917968l-8.164063-.976563c-10.175781-1.214844-18.132812-9.171875-19.347656-19.34375l-.972656-8.167969c-1.984375-16.609375-11.433594-30.933594-25.917969-39.296875-14.488281-8.367187-31.617188-9.386719-46.992188-2.796875l-7.5625 3.238282c-9.417968 4.035156-20.285156 1.121093-26.425781-7.082032l-4.925781-6.582031c-10.023438-13.394531-25.363281-21.07421875-42.09375-21.07421875s-32.070312 7.67968775-42.09375 21.07421875l-4.929688 6.582031c-6.140624 8.207032-17.003906 11.117188-26.425781 7.082032l-7.558593-3.238282c-15.378907-6.585937-32.507813-5.570312-46.992188 2.796875-14.488281 8.363281-23.9375 22.6875-25.917969 39.296875l-.976562 8.164063c-1.214844 10.175781-9.171875 18.132812-19.347657 19.347656l-8.164062.976563c-16.609375 1.980468-30.933594 11.429687-39.296875 25.917968-8.367187 14.484375-9.382813 31.613282-2.796875 46.992188l3.238281 7.558594c4.035157 9.417968 1.121094 20.285156-7.082031 26.425781l-6.582031 4.925781c-13.390625 10.023438-21.074219 25.367188-21.074219 42.09375 0 16.730469 7.683594 32.074219 21.074219 42.097656l6.585937 4.925782c8.203125 6.140624 11.113282 17.007812 7.082032 26.425781l-3.242188 7.558593c-6.585938 15.378907-5.566406 32.507813 2.796875 46.992188 8.367187 14.488281 22.6875 23.9375 39.300781 25.917969l8.164063.976562c10.175781 1.214844 18.132812 9.171875 19.347656 19.34375l.972656 8.167969c1.984375 16.609375 11.433594 30.933594 25.917969 39.296875 14.488281 8.363281 31.617188 9.382813 46.992188 2.796875l7.5625-3.238281c9.417968-4.035157 20.285156-1.121094 26.425781 7.082031l4.925781 6.582031c10.023438 13.394531 25.367188 21.078125 42.097656 21.078125 16.726563 0 32.070313-7.683594 42.09375-21.078125l4.925782-6.582031c6.140624-8.203125 17.003906-11.117188 26.429687-7.078125l7.558594 3.234375c15.375 6.585938 32.503906 5.570312 46.992187-2.792969 14.484375-8.367187 23.933594-22.691406 25.917969-39.300781l.972656-8.164062c1.214844-10.175782 9.171875-18.132813 19.347657-19.347657l8.164062-.972656c16.609375-1.984375 30.9375-11.433594 39.300781-25.917969 8.363281-14.488281 9.382813-31.617187 2.792969-46.996094l-3.234375-7.554687c-4.035156-9.421875-1.125-20.289063 7.082031-26.429687l6.582032-4.925782c13.394531-10.023437 21.074218-25.367187 21.074218-42.09375-.003906-16.730468-7.6875-32.074218-21.078125-42.097656zm-11.984375 68.179688-6.582031 4.925781c-15.621094 11.6875-21.167969 32.378906-13.480469 50.316406l3.234375 7.554687c4.082031 9.527344 3.449219 20.140626-1.730469 29.117188-5.183593 8.980469-14.058593 14.832031-24.351562 16.0625l-8.164062.972656c-19.375 2.3125-34.519532 17.460938-36.832032 36.835938l-.976562 8.164062c-1.230469 10.292969-7.082032 19.167969-16.058594 24.351563-8.976562 5.179687-19.589844 5.8125-29.117188 1.730469l-7.558593-3.238282c-17.9375-7.683594-38.625-2.136718-50.316407 13.484375l-4.925781 6.582031c-6.210937 8.296876-15.71875 13.058594-26.082031 13.058594-10.367188 0-19.875-4.761718-26.085938-13.058594l-4.925781-6.582031c-8.167969-10.917969-20.730469-16.914062-33.675781-16.914062-5.582031 0-11.234375 1.117187-16.636719 3.429687l-7.558593 3.238282c-9.53125 4.082031-20.140626 3.449218-29.121094-1.730469-8.976563-5.183594-14.828125-14.058594-16.058594-24.351563l-.972656-8.164062c-2.316406-19.375-17.460938-34.519532-36.835938-36.832032l-8.164062-.976562c-10.292969-1.230469-19.167969-7.082031-24.351563-16.058594-5.179687-8.976562-5.8125-19.589844-1.730469-29.117187l3.238282-7.558594c7.683594-17.933594 2.136718-38.625-13.480469-50.316406l-6.585937-4.925781c-8.296876-6.210938-13.054688-15.71875-13.054688-26.085938 0-10.363281 4.757812-19.871094 13.058594-26.082031l6.582031-4.925781c15.621094-11.691407 21.167969-32.382813 13.480469-50.316407l-3.234375-7.558593c-4.082031-9.527344-3.449219-20.140626 1.730469-29.117188 5.183593-8.976562 14.058593-14.828125 24.351562-16.058594l8.164062-.976562c19.375-2.3125 34.519532-17.457032 36.832032-36.832032l.976562-8.164062c1.230469-10.292969 7.082032-19.167969 16.058594-24.351562 8.976562-5.183594 19.589844-5.8125 29.117188-1.730469l7.558593 3.234375c17.933594 7.683594 38.625 2.140625 50.316407-13.480469l4.925781-6.582031c6.210937-8.296875 15.71875-13.058594 26.082031-13.058594s19.871094 4.761719 26.082031 13.058594l4.929688 6.585937c11.6875 15.621094 32.382812 21.164063 50.3125 13.480469l7.558593-3.238281c9.527344-4.082031 20.140626-3.449219 29.117188 1.730469 8.976562 5.183593 14.832031 14.058593 16.058594 24.351562l.976562 8.164062c2.3125 19.375 17.460938 34.519532 36.832032 36.832032l8.164062.976562c10.292969 1.230469 19.167969 7.082032 24.351562 16.058594 5.183594 8.976562 5.8125 19.589844 1.734376 29.117188l-3.238282 7.558593c-7.683594 17.9375-2.140625 38.625 13.480469 50.316407l6.582031 4.925781c8.300782 6.210937 13.058594 15.71875 13.058594 26.085937 0 10.363282-4.757812 19.871094-13.058594 26.082032zm0 0"/><path d="m256 58.121094c-30.167969 0-59.136719 6.617187-86.097656 19.667968-4.972656 2.40625-7.050782 8.386719-4.648438 13.355469 2.40625 4.972657 8.390625 7.050781 13.359375 4.644531 24.222657-11.722656 50.257813-17.667968 77.386719-17.667968 98.082031 0 177.878906 79.796875 177.878906 177.882812 0 98.082032-79.796875 177.878906-177.878906 177.878906-98.085938 0-177.882812-79.796874-177.882812-177.878906 0-40.175781 13.066406-78.082031 37.789062-109.625 3.40625-4.347656 2.644531-10.632812-1.703125-14.042968-4.347656-3.40625-10.632813-2.640626-14.039063 1.703124-27.503906 35.101563-42.042968 77.273438-42.042968 121.964844 0 109.109375 88.769531 197.878906 197.878906 197.878906s197.878906-88.769531 197.878906-197.878906c0-109.113281-88.769531-197.882812-197.878906-197.882812zm0 0"/><path d="m109.789062 205.085938-7.617187 9.710937c-3.410156 4.347656-2.648437 10.632813 1.695313 14.039063 4.347656 3.410156 10.632812 2.652343 14.039062-1.695313l4.183594-5.328125v66.136719h-6.695313c-5.523437 0-10 4.476562-10 10 0 5.523437 4.476563 10 10 10h33.046875c5.519532 0 10-4.476563 10-10 0-5.523438-4.480468-10-10-10h-6.351562v-76.691407c0-5.523437-4.480469-10-10-10h-14.433594c-3.070312 0-5.972656 1.410157-7.867188 3.828126zm0 0"/><path d="m190.148438 307.949219h5.195312c16.515625 0 29.949219-13.433594 29.949219-29.949219v-48.472656c0-16.515625-13.4375-29.953125-29.949219-29.953125h-5.195312c-16.515626 0-29.949219 13.4375-29.949219 29.953125v48.472656c0 16.515625 13.433593 29.949219 29.949219 29.949219zm-9.949219-78.421875c0-5.488282 4.464843-9.953125 9.949219-9.953125h5.195312c5.484375 0 9.949219 4.464843 9.949219 9.953125v48.472656c0 5.484375-4.464844 9.949219-9.949219 9.949219h-5.195312c-5.484376 0-9.949219-4.464844-9.949219-9.949219zm0 0"/><path d="m270.738281 307.949219c16.515625 0 29.949219-13.433594 29.949219-29.949219v-48.472656c0-16.515625-13.4375-29.953125-29.949219-29.953125h-5.195312c-16.515625 0-29.949219 13.4375-29.949219 29.953125v48.472656c0 16.515625 13.433594 29.949219 29.949219 29.949219zm-15.144531-29.949219v-48.472656c0-5.488282 4.464844-9.953125 9.949219-9.953125h5.195312c5.484375 0 9.949219 4.464843 9.949219 9.953125v48.472656c0 5.484375-4.464844 9.949219-9.949219 9.949219h-5.195312c-5.484375 0-9.949219-4.460938-9.949219-9.949219zm0 0"/><path d="m402.800781 198.359375c-4.464843-3.246094-10.71875-2.257813-13.96875 2.207031l-63.539062 87.378906c-3.25 4.46875-2.261719 10.722657 2.207031 13.96875 1.773438 1.289063 3.832031 1.914063 5.871094 1.914063 3.089844 0 6.140625-1.429687 8.097656-4.121094l63.539062-87.378906c3.25-4.464844 2.257813-10.71875-2.207031-13.96875zm0 0"/><path d="m165.929688 160.277344c2.332031 0 4.675781-.8125 6.570312-2.464844 23.117188-20.1875 52.769531-31.304688 83.5-31.304688 28.75 0 55.863281 9.367188 78.410156 27.085938 4.34375 3.414062 10.628906 2.660156 14.042969-1.683594 3.410156-4.339844 2.65625-10.628906-1.683594-14.039062-26.109375-20.519532-57.496093-31.363282-90.769531-31.363282-35.566406 0-69.894531 12.871094-96.652344 36.238282-4.160156 3.632812-4.589844 9.949218-.957031 14.109375 1.976563 2.265625 4.75 3.421875 7.539063 3.421875zm0 0"/><path d="m164.089844 369.175781c26.101562 20.515625 57.492187 31.359375 90.765625 31.359375 23.085937 0 45.1875-5.203125 65.695312-15.460937 4.9375-2.46875 6.9375-8.476563 4.46875-13.417969-2.472656-4.9375-8.476562-6.9375-13.417969-4.46875-17.703124 8.859375-36.796874 13.347656-56.746093 13.347656-28.746094 0-55.863281-9.363281-78.410157-27.085937-4.339843-3.410157-10.628906-2.65625-14.039062 1.683593-3.414062 4.34375-2.660156 10.628907 1.683594 14.042969zm0 0"/><path d="m354.199219 352.070312c-2.210938-3.3125-6.351563-5.03125-10.261719-4.25-4.148438.832032-7.414062 4.300782-7.964844 8.5-.539062 4.078126 1.578125 8.183594 5.203125 10.121094 3.640625 1.949219 8.21875 1.414063 11.324219-1.308594 3.734375-3.285156 4.398438-8.933593 1.699219-13.0625zm0 0"/><path d="m337.222656 196.449219c-12.976562 0-23.535156 10.554687-23.535156 23.53125 0 12.976562 10.558594 23.535156 23.535156 23.535156 12.972656 0 23.53125-10.558594 23.53125-23.535156 0-12.976563-10.558594-23.53125-23.53125-23.53125zm0 27.066406c-1.949218 0-3.535156-1.585937-3.535156-3.535156s1.585938-3.535157 3.535156-3.535157c1.949219 0 3.53125 1.585938 3.53125 3.535157s-1.582031 3.535156-3.53125 3.535156zm0 0"/><path d="m369.191406 280.925781c0 12.976563 10.558594 23.535157 23.53125 23.535157 12.976563 0 23.535156-10.558594 23.535156-23.535157 0-12.976562-10.558593-23.535156-23.535156-23.535156-12.972656 0-23.53125 10.558594-23.53125 23.535156zm27.066406 0c0 1.949219-1.582031 3.535157-3.53125 3.535157-1.949218 0-3.535156-1.585938-3.535156-3.535157s1.585938-3.535156 3.535156-3.535156c1.949219 0 3.53125 1.585937 3.53125 3.535156zm0 0"/><path d="m129.472656 113.453125c1.609375 3.863281 5.539063 6.355469 9.71875 6.160156 4.125-.195312 7.75-3.015625 9.023438-6.929687 1.285156-3.953125-.113282-8.46875-3.425782-10.988282-3.378906-2.570312-8.097656-2.71875-11.636718-.378906-3.945313 2.605469-5.460938 7.789063-3.679688 12.136719zm0 0"/></symbol>
    <symbol id="technical-support" viewBox="0 0 512 512"><title>technical-support</title><path d="m90.050781 395.949219c-7.167969 0-14.058593 1.789062-20.171875 5.148437-32.203125-41.28125-49.878906-92.5625-49.878906-145.097656 0-130.132812 105.867188-236 236-236 15.820312 0 31.632812 1.574219 47 4.679688 5.40625 1.09375 10.6875-2.40625 11.78125-7.820313s-2.40625-10.6875-7.820312-11.785156c-16.667969-3.367188-33.8125-5.074219-50.960938-5.074219-68.378906 0-132.667969 26.628906-181.019531 74.980469-48.351563 48.351562-74.980469 112.640625-74.980469 181.019531 0 57.519531 19.53125 113.652344 55.089844 158.652344-4.578125 6.839844-7.039063 14.878906-7.039063 23.296875 0 11.21875 4.371094 21.765625 12.304688 29.695312 7.929687 7.933594 18.476562 12.304688 29.695312 12.304688s21.765625-4.371094 29.699219-12.304688c7.933594-7.929687 12.300781-18.480469 12.300781-29.699219 0-11.214843-4.367187-21.765624-12.300781-29.695312-7.933594-7.933594-18.480469-12.300781-29.699219-12.300781zm15.554688 57.554687c-4.152344 4.15625-9.679688 6.445313-15.554688 6.445313s-11.398437-2.289063-15.554687-6.445313-6.445313-9.679687-6.445313-15.554687c0-5.878907 2.289063-11.402344 6.445313-15.558594 4.152344-4.15625 9.679687-6.441406 15.554687-6.441406s11.398438 2.289062 15.554688 6.441406c4.15625 4.15625 6.445312 9.679687 6.445312 15.558594 0 5.875-2.289062 11.398437-6.445312 15.554687zm0 0"/><path d="m456.902344 97.335938c10.871094-16.308594 9.125-38.605469-5.253906-52.984376-7.933594-7.929687-18.480469-12.300781-29.699219-12.300781s-21.765625 4.371094-29.699219 12.300781c-7.933594 7.933594-12.300781 18.480469-12.300781 29.699219s4.367187 21.765625 12.300781 29.699219 18.480469 12.300781 29.699219 12.300781c7.167969 0 14.058593-1.789062 20.171875-5.148437 32.203125 41.285156 49.878906 92.5625 49.878906 145.097656 0 130.132812-105.867188 236-236 236-15.664062 0-31.328125-1.542969-46.550781-4.589844-5.414063-1.082031-10.683594 2.429688-11.769531 7.84375-1.082032 5.417969 2.429687 10.683594 7.84375 11.769532 16.511718 3.300781 33.496093 4.976562 50.476562 4.976562 68.378906 0 132.667969-26.628906 181.019531-74.980469 48.351563-48.351562 74.980469-112.640625 74.980469-181.019531 0-57.523438-19.535156-113.660156-55.097656-158.664062zm-50.507813-7.726563c-4.15625-4.15625-6.445312-9.679687-6.445312-15.558594 0-5.875 2.289062-11.398437 6.445312-15.554687 4.152344-4.15625 9.679688-6.445313 15.554688-6.445313s11.402343 2.289063 15.558593 6.445313c8.574219 8.578125 8.574219 22.535156 0 31.113281-4.15625 4.152344-9.683593 6.441406-15.558593 6.441406-5.878907 0-11.402344-2.289062-15.554688-6.441406zm0 0"/><path d="m214.734375 428c0 5.523438 4.480469 10 10 10h62.527344c5.523437 0 10-4.476562 10-10v-19.386719c13.148437-3.539062 25.71875-8.75 37.53125-15.554687l13.6875 13.6875c1.875 1.875 4.417969 2.929687 7.074219 2.929687 2.648437 0 5.195312-1.054687 7.070312-2.933593l44.195312-44.226563c3.902344-3.90625 3.902344-10.238281 0-14.140625l-13.671874-13.671875c6.804687-11.8125 12.015624-24.382813 15.554687-37.53125h19.3125c5.523437 0 10-4.476563 10-10v-62.527344c0-5.523437-4.476563-10-10-10h-19.316406c-3.539063-13.144531-8.746094-25.714843-15.550781-37.527343l13.597656-13.597657c1.875-1.875 2.929687-4.421875 2.929687-7.074219-.003906-2.652343-1.058593-5.199218-2.933593-7.074218l-44.230469-44.195313c-3.902344-3.902343-10.234375-3.902343-14.140625.003907l-13.578125 13.582031c-11.8125-6.804688-24.382813-12.015625-37.53125-15.554688v-19.207031c0-5.523438-4.476563-10-10-10h-62.527344c-5.519531 0-10 4.476562-10 10v19.210938c-13.144531 3.535156-25.714844 8.746093-37.527344 15.550781l-13.582031-13.582031c-3.902344-3.902344-10.234375-3.90625-14.140625-.003907l-44.226563 44.199219c-1.878906 1.875-2.933593 4.417969-2.933593 7.070312 0 2.652344 1.054687 5.199219 2.929687 7.074219l13.597656 13.597657c-6.804687 11.8125-12.015624 24.378906-15.554687 37.527343h-19.277344c-5.523437 0-10 4.476563-10 9.996094l-.035156 62.527344c-.003906 2.652343 1.050781 5.199219 2.925781 7.074219s4.417969 2.929687 7.074219 2.929687h19.3125c3.539063 13.148437 8.75 25.71875 15.554687 37.53125l-13.671874 13.671875c-3.902344 3.902344-3.90625 10.234375 0 14.140625l44.195312 44.226563c1.875 1.875 4.417969 2.933593 7.070312 2.933593h.003907c2.652343 0 5.195312-1.054687 7.070312-2.929687l13.683594-13.6875c11.816406 6.804687 24.386719 12.015625 37.53125 15.554687zm-33.609375-55.972656c-3.957031-2.558594-9.164062-2.003906-12.5 1.328125l-12.175781 12.175781-30.058594-30.082031 12.164063-12.167969c3.332031-3.332031 3.886718-8.539062 1.328124-12.496094-9.066406-14.03125-15.441406-29.410156-18.941406-45.714844-.992187-4.605468-5.0625-7.898437-9.777344-7.898437h-17.175781l.023438-42.527344h17.152343c4.714844 0 8.785157-3.289062 9.777344-7.898437 3.5-16.300782 9.875-31.679688 18.941406-45.710938 2.558594-3.957031 2.003907-9.164062-1.328124-12.496094l-12.085938-12.089843 30.082031-30.058594 12.074219 12.078125c3.335938 3.332031 8.539062 3.882812 12.5 1.328125 14.027344-9.066406 29.40625-15.441406 45.710938-18.941406 4.605468-.992188 7.898437-5.066407 7.898437-9.777344v-17.078125h42.527344v17.074219c0 4.714843 3.289062 8.789062 7.898437 9.777343 16.300782 3.503907 31.683594 9.875 45.710938 18.941407 3.957031 2.558593 9.164062 2.007812 12.496094-1.328125l12.078124-12.074219 30.082032 30.058594-12.085938 12.085937c-3.335937 3.335938-3.886718 8.542969-1.328125 12.5 9.066407 14.03125 15.4375 29.410156 18.941407 45.710938.988281 4.609375 5.0625 7.898437 9.777343 7.898437h17.183594v42.527344h-17.183594c-4.714843 0-8.785156 3.292969-9.777343 7.898437-3.5 16.300782-9.875 31.683594-18.941407 45.710938-2.558593 3.960938-2.003906 9.167969 1.328125 12.5l12.164063 12.164062-30.058594 30.082032-12.175781-12.171875c-3.335938-3.335938-8.542969-3.886719-12.5-1.328125-14.03125 9.066406-29.410156 15.4375-45.710938 18.941406-4.609375.992188-7.898437 5.0625-7.898437 9.777344v17.253906h-42.527344v-17.253906c0-4.710938-3.292969-8.785156-7.898437-9.777344-16.300782-3.5-31.679688-9.875-45.710938-18.941406zm0 0"/><path d="m338.628906 256c0-45.5625-37.066406-82.628906-82.628906-82.628906s-82.628906 37.066406-82.628906 82.628906 37.066406 82.628906 82.628906 82.628906 82.628906-37.066406 82.628906-82.628906zm-145.257812 0c0-34.535156 28.09375-62.628906 62.628906-62.628906s62.628906 28.097656 62.628906 62.628906-28.09375 62.628906-62.628906 62.628906-62.628906-28.09375-62.628906-62.628906zm0 0"/><path d="m348.078125 37.820312c2.632813 0 5.210937-1.070312 7.070313-2.929687 1.859374-1.871094 2.929687-4.449219 2.929687-7.082031 0-2.617188-1.066406-5.199219-2.929687-7.070313-1.859376-1.859375-4.4375-2.929687-7.070313-2.929687-2.640625 0-5.207031 1.070312-7.066406 2.929687-1.863281 1.871094-2.933594 4.441407-2.933594 7.070313 0 2.640625 1.070313 5.210937 2.933594 7.082031 1.859375 1.859375 4.425781 2.929687 7.066406 2.929687zm0 0"/><path d="m164.359375 474.359375c-2.628906 0-5.210937 1.070313-7.070313 2.929687-1.859374 1.859376-2.929687 4.441407-2.929687 7.070313 0 2.640625 1.070313 5.210937 2.929687 7.070313 1.859376 1.859374 4.441407 2.929687 7.070313 2.929687s5.210937-1.070313 7.070313-2.929687c1.859374-1.859376 2.929687-4.441407 2.929687-7.070313s-1.070313-5.210937-2.929687-7.070313c-1.859376-1.859374-4.441407-2.929687-7.070313-2.929687zm0 0"/></symbol>
    <symbol id="team-management" viewBox="0 0 512 512"><title>team-management</title><path d="m198.938 342.74c-1.304-3.912.794-8.136 4.706-9.468 3.94-1.304 8.164.822 9.468 4.734 3.061 9.071 8.901 16.866 16.526 22.365 7.398 5.301 16.498 8.447 26.363 8.447s18.964-3.146 26.363-8.447c7.625-5.499 13.493-13.295 16.526-22.365 1.304-3.912 5.556-6.037 9.468-4.734 3.912 1.332 6.038 5.556 4.706 9.468-4.054 12.104-11.821 22.45-21.969 29.764-9.893 7.115-22.025 11.31-35.093 11.31s-25.172-4.195-35.093-11.31c-10.15-7.314-17.917-17.66-21.971-29.764zm233.181-203.414-27.95-9.468-17.887 8.73v7.965c0 6.293 2.58 12.019 6.747 16.186 4.168 4.167 9.893 6.747 16.186 6.747s12.019-2.58 16.186-6.747c4.139-4.167 6.718-9.893 6.718-16.186zm-45.837-17.348 13.635-6.69c1.814-1.049 4.025-1.332 6.151-.595l26.051 8.816v-9.553c0-2.608-1.049-4.989-2.778-6.718-1.757-1.729-4.138-2.806-6.746-2.806h-26.788c-2.608 0-4.989 1.077-6.718 2.806s-2.806 4.11-2.806 6.718v8.022zm-306.4-5.698h45.837v-11.849h-36.313c-2.608 0-4.989 1.077-6.718 2.806s-2.807 4.11-2.807 6.718v2.325zm45.837 14.995h-45.837v15.279c0 6.293 2.58 12.019 6.747 16.186 4.139 4.167 9.893 6.747 16.186 6.747s12.019-2.58 16.186-6.747c4.139-4.167 6.719-9.893 6.719-16.186v-15.279zm153.214-34.61c-8.277.851-20.296.085-30.671-8.447-3.685 1.956-8.929 3.883-15.165 3.798v11.821c0 6.321 2.58 12.047 6.718 16.186 4.167 4.167 9.893 6.747 16.186 6.747s12.019-2.58 16.186-6.747c4.167-4.139 6.747-9.864 6.747-16.186v-7.172zm-45.837-19.588c6.52.227 10.999-3.94 11.027-3.968l.142-.114c3.118-2.693 7.824-2.353 10.545.766 7.625 8.759 18.028 8.844 24.123 7.909v-10.432c0-2.608-1.077-4.989-2.806-6.718-1.73-1.729-4.111-2.806-6.719-2.806h-26.787c-2.608 0-4.989 1.077-6.719 2.806-1.757 1.729-2.806 4.11-2.806 6.718zm-92.382 69.477c0 6.917-1.871 13.437-5.13 19.049 7.568 1.248 14.343 4.904 19.559 10.12 6.549 6.548 10.631 15.591 10.631 25.569v12.189l2.041-2.041c.312-.34.652-.595.992-.851 2.438-1.927 5.103-2.919 7.965-2.948 3.118-.028 6.01 1.134 8.674 3.515.113.085.198.199.311.284l7.285 7.257v-60.123c0-9.95 4.054-18.992 10.63-25.568 5.216-5.216 11.991-8.844 19.559-10.12-3.26-5.613-5.159-12.104-5.159-19.049v-32.599c0-6.747 2.778-12.869 7.2-17.32 4.45-4.45 10.573-7.2 17.349-7.2h26.787c6.747 0 12.87 2.75 17.32 7.2 4.45 4.451 7.2 10.573 7.2 17.32v32.599c0 6.945-1.871 13.436-5.159 19.049 7.568 1.275 14.372 4.904 19.587 10.12 6.548 6.576 10.63 15.619 10.63 25.568v60.123l7.257-7.257c.312-.34.652-.624 1.021-.851 2.466-2.013 5.13-2.976 7.994-2.948 3.089.028 5.924 1.19 8.532 3.43.113.113.255.255.397.369l2.04 2.041v-12.189c0-9.978 4.082-19.021 10.631-25.569 5.215-5.215 12.018-8.872 19.587-10.12-3.288-5.612-5.159-12.132-5.159-19.049v-32.598c0-6.747 2.75-12.898 7.2-17.32 4.451-4.45 10.573-7.2 17.32-7.2h26.788c6.774 0 12.898 2.75 17.348 7.2 4.422 4.422 7.2 10.573 7.2 17.32v32.598c0 6.917-1.899 13.437-5.159 19.049 7.569 1.248 14.343 4.904 19.559 10.12 6.577 6.548 10.63 15.591 10.63 25.569v40.11c5.84 4.536 12.785 12.586 18.256 18.028 2.041 2.041 3.175 4.904 3.175 7.795-.028 2.892-1.276 6.123-3.345 8.192l-5.868 5.868c1.729 2.948 3.203 6.151 4.507 9.411 1.304 3.288 2.409 6.576 3.345 9.666h8.589c2.92 0 5.897 1.077 7.994 3.175 2.269 2.239 3.175 5.272 3.175 8.334v23.782c0 2.977-1.077 5.925-3.175 8.023-2.211 2.211-5.272 3.175-8.305 3.175h-8.277c-.936 3.09-2.041 6.378-3.345 9.666-1.304 3.26-2.778 6.463-4.507 9.411l6.038 6.038c1.956 1.956 3.147 5.329 3.175 8.022 0 2.778-.935 5.272-2.892 7.455-.085.113-.198.227-.283.312v.028l-17.064 17.036c-4.876 4.876-11.169 4.621-15.96-.142l-5.924-5.924c-3.288 1.814-6.293 3.232-9.411 4.479-3.033 1.219-6.094 2.239-9.61 3.345v8.646c0 2.976-1.077 5.981-3.203 8.079-2.069 2.069-4.734 3.09-7.994 3.061v.057h-24.094c-3.005 0-5.897-.992-8.051-3.118-2.211-2.211-3.147-5.301-3.147-8.306v-8.419c-3.543-1.105-6.576-2.126-9.609-3.345-1.587-.652-3.146-1.332-4.734-2.069.085.595.142 1.219.142 1.843.028 3.316-1.333 6.52-3.657 8.844l-23.925 23.953c-2.268 2.268-5.726 3.742-8.929 3.77-3.43.028-6.803-1.587-9.185-3.941l-10.006-10.035c-5.386 3.09-10.063 5.329-14.939 7.285-4.79 1.928-9.609 3.487-15.477 5.301v14.428c0 3.374-1.162 6.803-3.572 9.213-2.324 2.296-5.358 3.458-9.1 3.43v.028h-33.931c-3.402 0-6.69-1.049-9.128-3.458-2.438-2.438-3.572-5.953-3.572-9.326v-14.315l-.113-.028c-5.811-1.786-10.602-3.373-15.335-5.272-4.876-1.956-9.581-4.195-14.967-7.285l-10.177 10.205c-2.296 2.296-5.725 3.798-8.986 3.77-3.118-.028-5.953-1.191-8.532-3.43-.142-.113-.283-.255-.397-.368l-.028.028-23.981-24.01c-2.296-2.296-3.6-5.527-3.6-8.787.028-.624.057-1.248.17-1.843-1.587.737-3.146 1.417-4.734 2.069-3.033 1.219-6.095 2.239-9.638 3.345v8.646c0 2.948-1.021 5.953-3.146 8.079-2.069 2.069-4.734 3.09-8.023 3.061v.057h-24.123c-2.977 0-5.839-.992-7.994-3.118-2.041-2.041-3.09-4.677-3.146-7.965v-.113h-.029v-8.646c-3.544-1.105-6.605-2.126-9.61-3.345-3.118-1.247-6.123-2.665-9.439-4.479l-6.066 6.066c-4.762 4.734-10.403 4.677-15.421.34-.113-.113-.255-.227-.369-.369l-.028.028-17.036-17.036c-2.041-2.041-3.203-4.904-3.175-7.795 0-2.381.794-4.706 2.296-6.917.255-.397.567-.765.878-1.105l6.01-6.038c-1.701-2.948-3.203-6.151-4.507-9.411-1.304-3.288-2.409-6.576-3.316-9.666h-8.589c-2.948 0-5.925-1.077-7.994-3.175-2.041-2.013-3.09-4.649-3.175-7.88v-.142h-.029v-24.094c0-2.977 1.078-5.924 3.204-8.022 2.097-2.098 5.13-3.175 8.022-3.175h8.561c.907-3.09 2.013-6.378 3.316-9.666 1.304-3.26 2.806-6.463 4.507-9.411l-6.01-6.038c-1.927-1.899-3.175-5.386-3.175-8.022-.028-2.891 1.134-5.754 3.203-7.824l17.008-17.008c.397-.396.766-.652 1.191-.992v-40.11c0-9.978 4.082-19.021 10.63-25.569 5.216-5.215 11.99-8.872 19.587-10.12-3.288-5.612-5.159-12.132-5.159-19.049v-22.79-9.808c0-6.747 2.749-12.898 7.2-17.32 4.45-4.45 10.574-7.2 17.32-7.2h43.824c4.139 0 7.483 3.345 7.483 7.484v26.844 22.79zm-20.239 33.534c-5.301 2.806-11.31 4.394-17.66 4.394-6.378 0-12.388-1.587-17.66-4.394h-9.128c-5.811 0-11.112 2.381-14.967 6.236-3.827 3.855-6.236 9.128-6.236 14.967v41.499l5.698 5.67c3.316-1.815 6.321-3.232 9.439-4.479 3.004-1.219 6.066-2.239 9.61-3.345v-8.645c0-.369.028-.709.085-1.077.227-2.835 1.275-5.188 3.09-7.002 2.098-2.069 4.762-3.089 7.994-3.061v-.028h24.122c2.977 0 5.897.963 8.023 3.089 2.183 2.183 3.146 5.301 3.146 8.277v8.447c3.543 1.105 6.604 2.126 9.638 3.345 1.587.652 3.146 1.333 4.734 2.069-.114-.595-.142-1.219-.17-1.842 0-3.146 1.077-5.953 3.289-8.447.113-.113.198-.227.312-.34l6.945-6.945v-27.184c0-5.839-2.381-11.112-6.236-14.967s-9.156-6.236-14.967-6.236h-9.101zm306.4 0c-5.273 2.806-11.311 4.394-17.66 4.394-6.378 0-12.387-1.587-17.66-4.394h-9.128c-5.811 0-11.112 2.381-14.967 6.236-3.827 3.855-6.208 9.128-6.208 14.967v27.184l6.945 6.945c2.296 2.296 3.6 5.528 3.572 8.788 0 .624-.057 1.247-.142 1.842 1.587-.737 3.146-1.417 4.734-2.069 3.033-1.219 6.066-2.239 9.609-3.345 0-2.778-.283-7.115.086-9.723.227-2.835 1.247-5.188 3.061-7.002 2.069-2.069 4.762-3.089 8.051-3.061v-.028h24.094c2.977 0 5.868.963 7.994 3.089 2.041 2.041 3.09 4.677 3.175 7.965v.114h.028v8.645c3.516 1.105 6.577 2.126 9.61 3.345 3.118 1.247 6.123 2.664 9.411 4.479l5.698-5.67v-41.499c0-5.839-2.381-11.112-6.236-14.967-3.827-3.855-9.127-6.236-14.967-6.236h-9.1zm-153.215-42.69c-5.272 2.778-11.282 4.365-17.66 4.365-6.406 0-12.444-1.587-17.745-4.422l-9.015.057c-5.839 0-11.14 2.381-14.967 6.208-3.855 3.855-6.236 9.156-6.236 14.967v56.948c.936-.397 1.899-.794 2.863-1.191 4.762-1.899 9.609-3.486 15.449-5.301v-14.428c0-3.373 1.162-6.803 3.572-9.212 2.324-2.296 5.386-3.459 9.128-3.43v-.028h33.931c3.373 0 6.662 1.049 9.1 3.459 2.296 2.296 3.487 5.329 3.543 9.099v.113h.028v14.428l.113.028c5.811 1.786 10.63 3.373 15.364 5.272.964.397 1.899.794 2.835 1.191v-56.948c0-5.811-2.381-11.112-6.208-14.967-3.855-3.827-9.156-6.208-14.967-6.208zm120.616 212.174c.651.369 1.304.708 1.956 1.049 3.912 1.871 8.306 2.919 12.982 2.919 8.249 0 15.733-3.345 21.147-8.759 5.443-5.414 8.788-12.898 8.788-21.175s-3.345-15.761-8.788-21.175c-5.414-5.414-12.897-8.759-21.147-8.759-4.677 0-9.071 1.049-12.982 2.92-.652.34-1.333.68-1.984 1.049 2.211 2.268 3.345 5.216 3.401 8.844v.142h.029v33.959c0 3.26-1.106 6.604-3.402 8.986zm-18.794-55.616c3.968-4.507 8.815-8.192 14.258-10.829 5.924-2.863 12.529-4.45 19.474-4.45 12.388 0 23.642 5.017 31.777 13.153 8.107 8.135 13.153 19.36 13.153 31.776s-5.045 23.641-13.153 31.776c-8.135 8.135-19.389 13.153-31.777 13.153-6.945 0-13.55-1.587-19.474-4.451-5.443-2.636-10.29-6.321-14.258-10.828h-4.876c-1.389 4.96-3.118 10.261-5.215 15.562-2.098 5.188-4.536 10.29-7.37 14.854l1.531 1.531c1.644-1.134 3.515-1.814 5.471-2.013 2.58-.283 5.272.227 7.597 1.559 3.487 2.013 6.406 3.43 9.298 4.592 2.976 1.19 6.094 2.211 9.836 3.373 2.523.652 5.046 2.353 6.662 4.365 1.672 2.126 2.551 4.677 2.551 7.37v6.945h16.469v-6.945h.028c-.028-2.891.964-5.386 2.551-7.37 1.644-2.069 3.968-3.543 6.293-4.28v.028l.028-.028c3.912-1.19 7.086-2.239 10.148-3.458 2.919-1.162 5.811-2.58 9.326-4.592 2.324-1.332 5.017-1.842 7.597-1.559 2.381.255 4.706 1.219 6.576 2.892.199.17.397.34.567.51l4.904 4.932 11.651-11.65-4.905-4.932h.028c-1.871-1.843-3.203-4.422-3.515-7.228-.284-2.551.227-5.273 1.871-7.795 1.672-2.665 3.147-5.726 4.423-8.929 1.304-3.232 2.409-6.718 3.345-10.063.652-2.296 2.268-4.733 4.365-6.406 2.041-1.616 4.706-2.664 7.342-2.664h6.945v-16.498h-6.945v-.028c-2.806.028-5.358-1.049-7.342-2.636-2.098-1.672-3.713-4.11-4.365-6.406-.936-3.345-2.041-6.831-3.345-10.063-1.276-3.203-2.751-6.265-4.423-8.929-1.644-2.523-2.154-5.244-1.871-7.795.312-2.664 1.587-5.329 3.486-7.228l4.905-4.933-11.651-11.65-4.904 4.933v-.028c-1.984 2.012-4.507 3.147-7.143 3.43-2.58.284-5.272-.227-7.597-1.559-3.515-2.013-6.407-3.43-9.326-4.592-2.977-1.191-6.067-2.211-9.809-3.373-2.523-.652-5.045-2.353-6.661-4.365-1.701-2.126-2.58-4.677-2.58-7.37v-6.945h-16.469v6.945h-.028c.057 2.891-.936 5.386-2.523 7.37-1.644 2.069-3.969 3.544-6.322 4.28v-.028l-.028.028c-3.883 1.19-7.086 2.239-10.148 3.458-2.892 1.162-5.811 2.579-9.298 4.592-2.324 1.333-5.017 1.843-7.597 1.559-1.956-.198-3.827-.878-5.471-2.013l-1.531 1.531c2.835 4.564 5.272 9.666 7.37 14.854 2.098 5.301 3.827 10.602 5.215 15.562h4.879zm-223.033-31.947c-1.644 1.134-3.515 1.814-5.471 2.013-2.551.284-5.244-.227-7.568-1.559-3.515-2.013-6.406-3.43-9.326-4.592-2.976-1.191-6.066-2.211-9.808-3.373-.142-.028-.255-.057-.369-.085-2.353-.737-4.649-2.211-6.322-4.28-1.446-1.842-2.41-4.082-2.523-6.69 0-.227-.028-.453-.028-.68v-6.945h-16.469v6.945h-.028c.057 2.891-.936 5.386-2.523 7.37-1.672 2.069-3.968 3.544-6.321 4.28v-.028l-.028.028c-3.883 1.19-7.087 2.239-10.148 3.458-2.891 1.162-5.811 2.579-9.297 4.592-2.353 1.333-5.046 1.843-7.597 1.559-2.409-.255-4.706-1.219-6.576-2.891-.199-.171-.397-.34-.595-.51l-4.904-4.933-11.651 11.65 4.904 4.933c1.871 1.842 3.175 4.422 3.487 7.228.284 2.551-.226 5.273-1.842 7.795-1.701 2.665-3.175 5.726-4.451 8.929-1.275 3.232-2.409 6.718-3.345 10.063-.624 2.296-2.267 4.734-4.365 6.406-2.041 1.644-4.706 2.664-7.342 2.664h-6.945v16.498h6.945v.028c2.834-.028 5.386 1.077 7.342 2.636 2.098 1.673 3.742 4.11 4.365 6.406.936 3.345 2.069 6.831 3.345 10.063 1.276 3.204 2.75 6.265 4.451 8.929 1.616 2.523 2.126 5.244 1.842 7.795-.283 2.664-1.559 5.329-3.487 7.228l-4.904 4.932 11.651 11.65 4.904-4.932.028.028c1.956-1.984 4.507-3.147 7.143-3.43 2.551-.283 5.244.227 7.597 1.559 3.486 2.013 6.406 3.43 9.297 4.592 2.977 1.19 6.067 2.211 9.837 3.373 2.494.652 5.045 2.353 6.661 4.365 1.672 2.126 2.551 4.677 2.551 7.37v6.945h16.469v-6.945h.028c-.057-2.891.935-5.386 2.523-7.37 1.672-2.069 3.969-3.543 6.322-4.28v.028l.028-.028c3.912-1.19 7.087-2.239 10.148-3.458 2.92-1.162 5.811-2.58 9.326-4.592 2.324-1.332 5.017-1.842 7.568-1.559 1.956.199 3.827.879 5.471 2.013l1.531-1.531c-2.835-4.564-5.273-9.666-7.342-14.854-2.126-5.301-3.827-10.602-5.244-15.562h-4.876c-4.053 4.592-9.014 8.362-14.57 10.998-5.84 2.75-12.331 4.281-19.134 4.281-12.416 0-23.642-5.018-31.777-13.153-8.136-8.136-13.153-19.361-13.153-31.776 0-12.416 5.017-23.641 13.153-31.776 8.135-8.136 19.361-13.153 31.777-13.153 6.803 0 13.294 1.531 19.134 4.28 5.556 2.636 10.517 6.406 14.57 10.999h4.876c1.417-4.961 3.118-10.262 5.244-15.562 2.069-5.188 4.507-10.29 7.342-14.854zm-34.696 35.632c-.709-.397-1.446-.794-2.183-1.134-3.855-1.814-8.164-2.834-12.756-2.834-8.277 0-15.761 3.345-21.175 8.759-5.415 5.414-8.76 12.897-8.76 21.175 0 8.277 3.345 15.761 8.76 21.175 5.414 5.414 12.897 8.759 21.175 8.759 4.592 0 8.9-1.021 12.756-2.834.737-.34 1.445-.737 2.154-1.134-2.154-2.239-3.288-5.188-3.373-8.844v-.142h-.028v-33.959c0-3.261 1.134-6.606 3.43-8.987zm45.865-60.803-.085.085-7.484 7.483 9.1 9.071h-.028c2.183 2.154 3.685 5.131 4.054 8.362.312 2.948-.255 6.095-2.126 9.014-2.495 3.912-4.677 8.391-6.52 13.068-1.9 4.706-3.487 9.694-4.819 14.485-.737 2.636-2.636 5.471-5.103 7.455-2.353 1.871-5.414 3.09-8.447 3.09h-12.841v29.31h12.841v.028c3.231 0 6.151 1.247 8.447 3.09 2.466 1.956 4.365 4.79 5.103 7.427 1.332 4.79 2.919 9.78 4.819 14.485 1.842 4.677 4.025 9.156 6.52 13.067 1.871 2.92 2.438 6.066 2.126 9.014-.34 2.977-1.644 5.754-3.572 7.852-.142.17-.283.34-.454.51l-9.1 9.071 20.75 20.749 9.071-9.099.028.028c2.239-2.296 5.187-3.628 8.22-3.968 3.005-.34 6.124.283 8.845 1.842 5.045 2.892 9.241 4.933 13.493 6.633 4.309 1.729 8.788 3.203 14.202 4.876.113.028.227.057.369.113 2.749.851 5.443 2.551 7.399 4.989 1.701 2.154 2.806 4.79 2.891 7.852.028.227.028.425.028.624v12.841h29.311v-12.841h.028c-.057-3.317 1.077-6.18 2.919-8.476 1.928-2.438 4.649-4.139 7.399-4.989h.028c5.556-1.729 10.12-3.231 14.542-4.989 4.224-1.701 8.447-3.742 13.493-6.633 2.693-1.559 5.84-2.183 8.816-1.842 2.834.34 5.556 1.474 7.738 3.486.17.142.34.312.51.454l9.1 9.099 20.721-20.749-1.843-1.842-7.228-7.228c-2.154-2.154-3.685-5.131-4.054-8.362-.312-2.948.284-6.094 2.154-9.014 2.495-3.912 4.649-8.39 6.52-13.067 1.871-4.706 3.459-9.695 4.819-14.485.738-2.636 2.637-5.471 5.103-7.427 2.353-1.899 5.386-3.118 8.419-3.118h12.841v-29.31h-12.841v-.028c-3.203 0-6.151-1.247-8.419-3.09-2.466-1.956-4.365-4.79-5.103-7.427-1.36-4.791-2.948-9.779-4.819-14.485-1.871-4.677-4.025-9.156-6.52-13.068-1.871-2.919-2.466-6.066-2.154-9.014.34-2.977 1.672-5.754 3.572-7.852.142-.17.312-.34.482-.51l9.071-9.071-7.483-7.483-.057-.085-13.181-13.181-9.1 9.099v-.028c-2.268 2.296-5.187 3.629-8.249 3.969-3.827.425-6.52-.539-9.752-2.381-4.337-2.183-7.994-4.252-12.557-6.094-4.337-1.73-8.788-3.203-14.202-4.876-2.948-.765-5.897-2.749-7.768-5.102-1.729-2.154-2.834-4.791-2.919-7.852 0-.227-.028-.425-.028-.623v-12.841h-29.311v12.841h-.028c.057 3.316-1.077 6.179-2.891 8.476-1.956 2.438-4.649 4.138-7.399 5.017l-.028-.028v.028c-5.584 1.701-10.148 3.203-14.542 4.961-3.798 1.53-7.597 3.316-11.962 5.754-3.203 2.013-6.52 3.146-10.376 2.722-2.834-.312-5.556-1.474-7.738-3.487-.171-.142-.34-.312-.51-.454l-9.071-9.099zm149.444 67.635c1.332 3.912-.794 8.135-4.706 9.468-3.912 1.304-8.164-.822-9.468-4.734-3.033-9.071-8.901-16.866-16.526-22.365-7.371-5.301-16.498-8.447-26.363-8.447s-18.964 3.146-26.363 8.447c-7.625 5.5-13.464 13.295-16.526 22.365-1.304 3.912-5.527 6.038-9.468 4.734-3.912-1.332-6.009-5.556-4.706-9.468 4.054-12.076 11.821-22.451 21.969-29.764 9.921-7.115 22.025-11.31 35.093-11.31s25.201 4.195 35.093 11.31c10.151 7.313 17.918 17.688 21.971 29.764z"/></symbol>
    <symbol id="team-1" viewBox="-20 -24 647.99967 647"><title>team-1</title><path d="m443.535156 279.71875c-27.566406 0-49.917968-22.347656-49.917968-49.917969 0-27.566406 22.351562-49.917969 49.917968-49.917969 27.570313 0 49.917969 22.351563 49.917969 49.917969-.03125 27.558594-22.359375 49.886719-49.917969 49.917969zm0-79.867188c-16.539062 0-29.949218 13.410157-29.949218 29.949219 0 16.546875 13.410156 29.949219 29.949218 29.949219 16.546875 0 29.949219-13.402344 29.949219-29.949219 0-16.539062-13.402344-29.949219-29.949219-29.949219zm0 0"/><path d="m164 279.71875c-27.566406 0-49.917969-22.347656-49.917969-49.917969 0-27.566406 22.351563-49.917969 49.917969-49.917969 27.570312 0 49.917969 22.351563 49.917969 49.917969-.03125 27.558594-22.359375 49.886719-49.917969 49.917969zm0-79.867188c-16.539062 0-29.949219 13.410157-29.949219 29.949219 0 16.546875 13.410157 29.949219 29.949219 29.949219 16.546875 0 29.949219-13.402344 29.949219-29.949219 0-16.539062-13.402344-29.949219-29.949219-29.949219zm0 0"/><path d="m503.4375 344.035156 95.171875-86.515625c11.132813-10.363281 11.914063-27.742187 1.75-39.058593-10.164063-11.316407-27.523437-12.40625-39.015625-2.445313l-71.683594 63.703125h-100.769531l-75.140625 91.847656v-251.582031h99.835938v39.933594h164.496093l-23.957031-59.902344 23.957031-59.898437h-114.578125v-39.933594h-169.71875v371.382812l-75.132812-91.847656h-100.769532l-71.683593-63.714844c-11.5-9.980468-28.878907-8.898437-39.050781 2.425782-10.179688 11.328124-9.394532 28.71875 1.765624 39.089843l95.1875 86.515625v235.183594h-99.835937v19.96875h599.003906v-19.96875h-99.832031zm-39.933594-283.953125h85.085938l-15.96875 39.933594 15.96875 39.933594h-115.039063v-19.964844h29.953125zm-149.753906-39.933593h129.785156v79.867187h-129.785156zm-109.816406 559.070312h-29.949219v-139.765625h-19.96875v139.765625h-29.949219v-244.011719l-101.710937-92.425781c-2.863281-2.664062-3.371094-7.011719-1.207031-10.273438 1.265624-1.898437 3.289062-3.15625 5.550781-3.449218 2.261719-.296875 4.542969.402344 6.25 1.914062l77.34375 68.710938h98.894531l74.234375 90.734375c2.878906 3.4375 2.425781 8.554687-1.007813 11.4375-3.441406 2.875-8.5625 2.421875-11.4375-1.015625l-67.042968-78.191406zm179.703125 0h-159.734375v-202.660156l31.949218 37.238281c9.261719 10.789063 25.117188 12.957031 36.933594 5.050781.371094-.25.691406-.566406 1.054688-.839844v81.34375h19.964844v-81.324218c.375.285156.707031.621094 1.105468.882812 11.808594 7.851563 27.617188 5.675782 36.859375-5.082031l31.867188-37.269531zm99.832031 0h-29.949219v-139.765625h-19.96875v139.765625h-29.949219v-256.570312l-67.035156 78.222656c-2.683594 3.109375-7.269531 3.722656-10.671875 1.425781-1.90625-1.253906-3.1875-3.265625-3.515625-5.523437-.34375-2.261719.285156-4.5625 1.738282-6.328126l74.234374-90.761718h98.898438l77.328125-68.742188c1.695313-1.535156 3.988281-2.242187 6.25-1.925781 2.296875.289063 4.34375 1.574219 5.601563 3.515625 2.148437 3.246094 1.621093 7.574219-1.25 10.210938l-101.710938 92.464843zm0 0"/></symbol>
    <symbol id="technical" viewBox="0 0 64 64"><title>technical</title><path d="M60.92,28H56V22h4.92a1,1,0,0,0,.87-.5,1.044,1.044,0,0,0,0-1,8.985,8.985,0,0,0-12.34-3.26l2.5-4.17a1.014,1.014,0,0,0-.15-1.22L46.15,6.2a1.014,1.014,0,0,0-1.22-.15L39.41,9.37a.611.611,0,0,1-.49.03.488.488,0,0,0-.07-.03.53.53,0,0,1-.32-.35L36.97,2.76A1,1,0,0,0,36,2H28a1,1,0,0,0-.97.76L25.47,9.02a.53.53,0,0,1-.32.35.488.488,0,0,0-.07.03.55.55,0,0,1-.48-.03L19.07,6.05a1.014,1.014,0,0,0-1.22.15L12.2,11.85a1.014,1.014,0,0,0-.15,1.22l2.51,4.17A9,9,0,0,0,2.21,20.5a1.044,1.044,0,0,0,0,1,1,1,0,0,0,.87.5H8v6H3.08a1,1,0,0,0-.87.5,1.044,1.044,0,0,0,0,1,8.983,8.983,0,0,0,10.96,3.92A8.2,8.2,0,0,0,13,34.99a.986.986,0,0,0,.03.24l2.01,8.04A19.539,19.539,0,0,0,20,51.04V59a3.009,3.009,0,0,0,3,3H41a3.009,3.009,0,0,0,3-3V51.37a18.649,18.649,0,0,0,5.88-8.93.577.577,0,0,0,.03-.14l1.46-8.7A8.866,8.866,0,0,0,54,34a9.009,9.009,0,0,0,7.79-4.5,1.044,1.044,0,0,0,0-1A1,1,0,0,0,60.92,28ZM14.17,12.71l4.54-4.54,4.88,2.92a2.51,2.51,0,0,0,2.28.14c.02,0,.03-.01.05-.02A2.506,2.506,0,0,0,27.41,9.5L28.78,4h6.44l1.37,5.5a2.506,2.506,0,0,0,1.49,1.71c.02.01.03.02.05.02a2.587,2.587,0,0,0,1.02.21,2.533,2.533,0,0,0,1.27-.35l4.87-2.92,4.54,4.54-2.71,4.51A2.942,2.942,0,0,0,46,17H44a2.974,2.974,0,0,0-2,.78A2.974,2.974,0,0,0,40,17h-.08a11.984,11.984,0,0,0-18.83,4H18.06a10.408,10.408,0,0,0-.78-1.28,2.547,2.547,0,0,0-.19-2.14ZM47,20V30a1,1,0,0,1-1,1H44a1,1,0,0,1-1-1V20a1,1,0,0,1,1-1h2A1,1,0,0,1,47,20Zm-6,0V30a1,1,0,0,1-1,1H38a1,1,0,0,1-1-1V20a1,1,0,0,1,1-1h2A1,1,0,0,1,41,20Zm-7-3H32a2.974,2.974,0,0,0-2,.78A2.974,2.974,0,0,0,28,17h-.39a10.057,10.057,0,0,1,9.21.24,3.071,3.071,0,0,0-.82.54A2.974,2.974,0,0,0,34,17Zm1,3v7.17A3.276,3.276,0,0,0,34,27H31V20a1,1,0,0,1,1-1h2A1,1,0,0,1,35,20Zm-6,0v7H25V20a1,1,0,0,1,1-1h2A1,1,0,0,1,29,20ZM10,32a7.033,7.033,0,0,1-4.9-2H9a1,1,0,0,0,1-1V21a1,1,0,0,0-1-1H5.1A7.033,7.033,0,0,1,10,18a6.957,6.957,0,0,1,6.48,4.37,1,1,0,0,0,.93.63H23v4H17.41a.977.977,0,0,0-.92.62,7.078,7.078,0,0,1-.63,1.2,8.065,8.065,0,0,0-1.44,1.59A6.961,6.961,0,0,1,10,32Zm37.95,9.9a17.066,17.066,0,0,1-5.61,8.27.981.981,0,0,0-.34.75V59a1,1,0,0,1-1,1H23a1,1,0,0,1-1-1V50.63a1.022,1.022,0,0,0-.3-.72c-1.12-1.09-3.82-3.96-4.73-7.15L15,34.87A6.041,6.041,0,0,1,20.07,29H34a.961.961,0,0,1,1,1,5,5,0,0,1-5,5H23v2h3.19l.31.19c2.07,1.26,3.86,2.35,4.53,5.05a9.632,9.632,0,0,1,0,4.53l1.94.46a11.5,11.5,0,0,0,0-5.47A8.388,8.388,0,0,0,29.81,37H30a6.978,6.978,0,0,0,6.49-4.42,2.94,2.94,0,0,0,1.5.42H40a2.974,2.974,0,0,0,2-.78A2.974,2.974,0,0,0,44,33h2a2.992,2.992,0,0,0,2.89-2.24c.26.37.51.75.73,1.13ZM54,32a6.875,6.875,0,0,1-2.35-.41.988.988,0,0,0-.11-.37A9.875,9.875,0,0,0,49,28V20.12A6.979,6.979,0,0,1,58.9,20H55a1,1,0,0,0-1,1v8a1,1,0,0,0,1,1h3.9A7.033,7.033,0,0,1,54,32Z"/><path d="M57,53V45a1,1,0,0,0-1-1H51v2h4v8a1,1,0,0,0,1,1h6V53Z"/><path d="M51,54a1,1,0,0,0-1-1H46v2h3v6a1,1,0,0,0,1,1H62V60H51Z"/><path d="M9,54V46h4V44H8a1,1,0,0,0-1,1v8H2v2H8A1,1,0,0,0,9,54Z"/><path d="M13,54v6H2v2H14a1,1,0,0,0,1-1V55h3V53H14A1,1,0,0,0,13,54Z"/></symbol>
    </svg>