<?xml version="1.0"?>
<svg xmlns="http://www.w3.org/2000/svg" viewBox="0 0 64 64" width="512" height="512"><g id="Solar_Panel-charnging" data-name="Solar Panel-charnging"><path d="M56,18H54V16a3.009,3.009,0,0,0-3-3H45a3.009,3.009,0,0,0-3,3v2H40V3a1,1,0,0,0-1-1H5A1,1,0,0,0,4,3V58a1,1,0,0,0,1,1H35.42A5.014,5.014,0,0,0,40,62H56a5,5,0,0,0,5-5V23A5,5,0,0,0,56,18ZM44,16a1,1,0,0,1,1-1h6a1,1,0,0,1,1,1v2H44ZM23,5.41,24.41,4H36.59L38,5.41v6.18L36.59,13H24.41L23,11.59ZM21,55.59,19.59,57H7.41L6,55.59V49.41L7.41,48H19.59L21,49.41Zm0-11L19.59,46H7.41L6,44.59V38.41L7.41,37H19.59L21,38.41Zm0-11L19.59,35H7.41L6,33.59V27.41L7.41,26H19.59L21,27.41Zm0-11L19.59,24H7.41L6,22.59V16.41L7.41,15H19.59L21,16.41Zm0-11L19.59,13H7.41L6,11.59V5.41L7.41,4H19.59L21,5.41Zm1,36L21.41,47l.59-.59.59.59Zm0-11L21.41,36l.59-.59.59.59Zm0-11L21.41,25l.59-.59.59.59Zm0-11L21.41,14l.59-.59.59.59ZM35,57H24.41L23,55.59V49.41L24.41,48H35Zm0-11H24.41L23,44.59V38.41L24.41,37H35Zm0-11H24.41L23,33.59V27.41L24.41,26H35Zm0-12v1H24.41L23,22.59V16.41L24.41,15H36.59L38,16.41v2.01A5.014,5.014,0,0,0,35,23ZM59,57a3.009,3.009,0,0,1-3,3H40a3.009,3.009,0,0,1-3-3V23a3.009,3.009,0,0,1,3-3H56a3.009,3.009,0,0,1,3,3Z"/><path d="M56,50H40a1,1,0,0,0-1,1v5a1,1,0,0,0,1,1H56a1,1,0,0,0,1-1V51A1,1,0,0,0,56,50Zm-1,5H41V52H55Z"/><path d="M56,41H40a1,1,0,0,0-1,1v5a1,1,0,0,0,1,1H56a1,1,0,0,0,1-1V42A1,1,0,0,0,56,41Zm-1,5H41V43H55Z"/><path d="M56,32H40a1,1,0,0,0-1,1v5a1,1,0,0,0,1,1H56a1,1,0,0,0,1-1V33A1,1,0,0,0,56,32Zm-1,5H41V34H55Z"/></g></svg>
